<svg xmlns="http://www.w3.org/2000/svg" width="93" height="65" fill="none"><g clip-path="url(#a)"><path fill="#FB651E" d="M38.88 4h-34v34h34V4Z"/><path fill="#fff" d="m20.734 23.224-5.836-10.932h2.668l3.432 6.918c.053.123.115.251.185.383.07.132.132.269.185.41a.81.81 0 0 1 .08.145c.017.044.035.083.052.119.088.175.167.347.238.514.07.168.132.322.185.463.14-.3.295-.621.462-.964.167-.344.339-.7.515-1.07l3.485-6.918h2.483l-5.89 11.064v7.05h-2.244v-7.182Z"/></g><path fill="#fff" d="M46.88 29.232V12.768h1.92v16.464h-1.92ZM57.189 20.496l6.576 8.736h-2.52l-6.288-8.712 6.336-7.752h2.52l-6.624 7.728Zm-4.32 8.736V12.768h1.992v16.464h-1.992Z"/><g fill="#fff" clip-path="url(#b)"><path d="M69.057 18.16c-.04.027-.114.08-.22.16l-.38.24c-.134.093-.28.187-.44.28a3.581 3.581 0 0 1-.44.24 16.282 16.282 0 0 1-.96.44c-.16.067-.307.133-.44.2a4.217 4.217 0 0 0-.28.12l-.34-.86 3.84-2.7h1.24v13.06h-1.58V18.16ZM81.128 29.34h-7.64v-.9c.386-.267.82-.627 1.3-1.08a29.09 29.09 0 0 0 1.7-1.78 25.077 25.077 0 0 0 1.4-1.7c.4-.52.72-1 .96-1.44.253-.453.44-.88.56-1.28.12-.4.18-.787.18-1.16 0-.747-.227-1.36-.68-1.84-.454-.493-1.034-.74-1.74-.74-.294 0-.574.04-.84.12-.254.067-.5.16-.74.28-.24.107-.48.24-.72.4-.24.147-.494.3-.76.46l-.68-.76c.746-.64 1.466-1.113 2.16-1.42.693-.307 1.4-.46 2.12-.46.52 0 1.006.1 1.46.3.453.187.846.447 1.18.78.333.32.593.707.78 1.16.2.453.3.94.3 1.46 0 .573-.114 1.167-.34 1.78-.227.613-.54 1.2-.94 1.76a25.355 25.355 0 0 1-1.76 2.08l-.96 1c-.307.32-.594.607-.86.86a12.1 12.1 0 0 1-.66.62c-.187.16-.32.26-.4.3.106-.013.333-.027.68-.04.346-.027.686-.04 1.02-.04h4.24l-.32 1.28Z"/></g><rect width="90.933" height="41" x="1.38" y=".5" stroke="#FB651E" rx="1.5"/><path fill="#fff" d="m32.944 62-.52-6.539c-.01-.139-.018-.29-.026-.455a59.24 59.24 0 0 0-.026-.481c0-.156-.005-.286-.013-.39v-.182a1.443 1.443 0 0 0-.052.169 5.79 5.79 0 0 1-.078.351c-.035.139-.074.286-.117.442l-.104.429L30.097 62h-.91l-1.768-6.331a72.639 72.639 0 0 1-.3-1.118 7.602 7.602 0 0 1-.142-.559 26.802 26.802 0 0 0-.039.676c-.01.173-.022.351-.04.533a29.06 29.06 0 0 1-.025.455L26.379 62h-1.027l.78-8.918h1.56l1.625 5.824c.112.416.195.767.247 1.053l.104.494c.008-.035.039-.195.09-.481.061-.286.14-.607.235-.962l1.677-5.928h1.573L34.01 62h-1.066Zm3.726-3.068v.156c0 .303.022.572.065.806a1.663 1.663 0 0 0 .923 1.222c.286.121.594.182.923.182a2.26 2.26 0 0 0 1.586-.611l.39.65c-.286.26-.62.46-1 .598a3.364 3.364 0 0 1-1.184.208c-.901 0-1.607-.303-2.119-.91-.502-.615-.754-1.46-.754-2.535 0-.546.06-1.005.182-1.378.121-.381.32-.737.598-1.066.511-.598 1.157-.897 1.937-.897.72 0 1.305.234 1.755.702.139.147.256.299.351.455.096.156.17.338.221.546.06.208.104.45.13.728.026.277.04.611.04 1.001v.143H36.67Zm2.964-.767a4.478 4.478 0 0 0-.09-.871 1.71 1.71 0 0 0-.209-.572 1.195 1.195 0 0 0-.48-.416 1.519 1.519 0 0 0-.69-.156c-.944 0-1.443.672-1.495 2.015h2.964ZM49.456 62v-4.784c0-.633-.278-.949-.833-.949-.294 0-.572.091-.831.273a8.338 8.338 0 0 0-.885.728V62h-1.026v-4.602c0-.2-.014-.364-.04-.494a.85.85 0 0 0-.142-.338c-.148-.173-.369-.26-.663-.26-.252 0-.508.07-.767.208-.252.13-.547.347-.884.65V62h-.975v-5.018c0-.416-.035-.737-.104-.962-.061-.234-.104-.373-.13-.416l.987-.234c.027.052.07.178.13.377.07.19.105.386.105.585.103-.121.23-.238.377-.351a2.75 2.75 0 0 1 .468-.312c.173-.095.346-.169.52-.221.181-.06.355-.091.52-.091.32 0 .62.095.896.286.286.182.49.446.611.793.313-.33.655-.59 1.028-.78.372-.2.723-.299 1.053-.299.485 0 .875.165 1.17.494.303.32.455.741.455 1.261V62h-1.04Zm8.472-3.328c0 .52-.06.997-.182 1.43a3.358 3.358 0 0 1-.52 1.092 2.482 2.482 0 0 1-.819.715 2.22 2.22 0 0 1-1.053.247c-.338 0-.676-.082-1.014-.247a2.121 2.121 0 0 1-.767-.611c-.017.139-.034.26-.052.364-.017.095-.06.208-.13.338h-1.014a1.99 1.99 0 0 0 .143-.585c.035-.243.052-.585.052-1.027v-6.37c0-.381-.026-.685-.078-.91a3.47 3.47 0 0 0-.09-.416l1.013-.195c.018.052.048.212.091.481.052.26.078.611.078 1.053v1.508c0 .147-.004.295-.013.442-.008.139-.013.23-.013.273.321-.312.624-.533.91-.663.286-.139.603-.208.95-.208.39 0 .736.078 1.04.234.311.147.576.364.792.65.217.286.382.633.494 1.04.122.407.182.862.182 1.365Zm-1.13-.065c0-.433-.031-.784-.092-1.053a1.705 1.705 0 0 0-.286-.689 1.172 1.172 0 0 0-.52-.403 1.6 1.6 0 0 0-.702-.156c-.32 0-.628.082-.923.247a1.986 1.986 0 0 0-.702.598v3.328c.174.225.408.412.702.559.295.147.594.221.897.221.226 0 .447-.052.663-.156.217-.104.386-.243.507-.416.122-.173.226-.425.312-.754.096-.338.143-.78.143-1.326Zm3.734.325v.156c0 .303.022.572.065.806a1.663 1.663 0 0 0 .923 1.222c.286.121.593.182.923.182a2.26 2.26 0 0 0 1.586-.611l.39.65c-.286.26-.62.46-1.001.598a3.364 3.364 0 0 1-1.183.208c-.901 0-1.608-.303-2.12-.91-.502-.615-.753-1.46-.753-2.535 0-.546.06-1.005.182-1.378.121-.381.32-.737.598-1.066.511-.598 1.157-.897 1.937-.897.72 0 1.304.234 1.755.702.138.147.255.299.35.455.096.156.17.338.222.546.06.208.104.45.13.728.026.277.039.611.039 1.001v.143h-4.043Zm2.964-.767a4.478 4.478 0 0 0-.091-.871 1.71 1.71 0 0 0-.208-.572 1.195 1.195 0 0 0-.481-.416 1.519 1.519 0 0 0-.69-.156c-.944 0-1.442.672-1.494 2.015h2.964Zm5.531-1.664a.763.763 0 0 0-.286-.052c-.407 0-.767.156-1.079.468-.147.147-.247.29-.299.429-.052.13-.078.33-.078.598V62h-1.014v-4.992c0-.425-.035-.75-.104-.975-.06-.225-.1-.36-.117-.403l1.014-.273c.026.052.07.182.13.39.07.2.095.42.078.663.234-.33.511-.59.832-.78.33-.2.659-.299.988-.299a.91.91 0 0 1 .221.026.84.84 0 0 1 .13.039l-.416 1.105Z" opacity=".7"/><defs><clipPath id="a"><path fill="#fff" d="M4.88 4h34v34h-34z"/></clipPath><clipPath id="b"><path fill="#fff" d="M65.557 15.5h21v15h-21z"/></clipPath></defs></svg>