<svg xmlns="http://www.w3.org/2000/svg" width="87" height="65" fill="none"><rect width="85.256" height="41" x=".556" y=".5" fill="#fff" rx="1.5"/><g clip-path="url(#a)"><path fill="#FB651E" d="M38.056 4h-34v34h34V4Z"/><path fill="#fff" d="m19.91 23.224-5.836-10.932h2.667l3.433 6.918c.053.123.114.251.185.383.07.132.132.269.185.41a.817.817 0 0 1 .079.145c.018.044.035.083.053.119.088.175.167.347.237.514.07.168.133.322.185.463.141-.3.295-.621.462-.964.168-.344.34-.7.515-1.07l3.486-6.918h2.482l-5.889 11.064v7.05H19.91v-7.182Z"/></g><path fill="#000" d="M57.312 24.6c0 .768-.2 1.504-.6 2.208-.384.704-.944 1.288-1.68 1.752a6.085 6.085 0 0 1-1.68.768c-.576.16-1.248.24-2.016.24-.992 0-1.92-.12-2.784-.36a9.624 9.624 0 0 1-2.496-1.128l.864-1.536c.688.496 1.384.856 2.088 1.08.72.224 1.496.336 2.328.336.624 0 1.128-.048 1.512-.144a3.326 3.326 0 0 0 1.104-.576c.784-.592 1.176-1.376 1.176-2.352 0-1.456-.984-2.48-2.952-3.072l-1.656-.504c-.752-.224-1.352-.44-1.8-.648a3.846 3.846 0 0 1-1.128-.816c-.688-.736-1.032-1.632-1.032-2.688 0-.704.128-1.344.384-1.92a4.345 4.345 0 0 1 1.08-1.488 4.81 4.81 0 0 1 1.68-.96c.656-.24 1.384-.36 2.184-.36 1.744 0 3.4.528 4.968 1.584l-.864 1.416c-.4-.256-.768-.472-1.104-.648a7.383 7.383 0 0 0-.984-.432 4.73 4.73 0 0 0-.936-.24 6.318 6.318 0 0 0-.984-.072c-1.04 0-1.848.24-2.424.72-.576.48-.864 1.144-.864 1.992 0 .672.208 1.208.624 1.608.432.4 1.136.76 2.112 1.08l1.896.6c.736.224 1.32.464 1.752.72.432.24.816.552 1.152.936.336.384.6.84.792 1.368.192.512.288 1.024.288 1.536Z"/><g fill="#000" clip-path="url(#b)"><path d="M62.556 18.16c-.04.027-.114.08-.22.16a56.52 56.52 0 0 0-.38.24c-.134.093-.28.187-.44.28a3.596 3.596 0 0 1-.44.24 16.552 16.552 0 0 1-.96.44 7.04 7.04 0 0 0-.44.2 4.17 4.17 0 0 0-.28.12l-.34-.86 3.84-2.7h1.24v13.06h-1.58V18.16ZM74.727 26.84h-.34a2.326 2.326 0 0 0-.2-.02v.28c.013.147.02.313.02.5v1.82l-1.54.46V27.14c.013-.173.02-.28.02-.32-.04 0-.134.007-.28.02h-5.68V25.6l4.74-9.36h1.74l-4.12 8.16c-.147.28-.294.547-.44.8l-.28.46c.04-.013.14-.027.3-.04.173-.013.333-.02.48-.02h3.1c.106 0 .2.007.28.02h.16c0-.04-.007-.127-.02-.26v-.3c0-.173.006-.34.02-.5.013-.173.026-.373.04-.6l.24-3.54 1.24-.38V25c0 .16-.007.3-.02.42v.2h.16c.093-.013.193-.02.3-.02h1.18v1.24h-1.1Z"/></g><rect width="85.256" height="41" x=".556" y=".5" stroke="#FB651E" rx="1.5"/><path fill="#000" d="m29.281 62-.52-6.539c-.009-.139-.017-.29-.026-.455a59.24 59.24 0 0 0-.026-.481c0-.156-.004-.286-.013-.39v-.182a1.443 1.443 0 0 0-.052.169 5.79 5.79 0 0 1-.078.351c-.035.139-.074.286-.117.442l-.104.429L26.434 62h-.91l-1.768-6.331a72.639 72.639 0 0 1-.299-1.118 7.602 7.602 0 0 1-.143-.559 26.802 26.802 0 0 0-.039.676c-.009.173-.022.351-.039.533a29.06 29.06 0 0 1-.026.455L22.716 62h-1.027l.78-8.918h1.56l1.625 5.824c.113.416.195.767.247 1.053l.104.494c.009-.035.039-.195.091-.481.06-.286.139-.607.234-.962l1.677-5.928h1.573L30.347 62h-1.066Zm3.727-3.068v.156c0 .303.021.572.065.806a1.663 1.663 0 0 0 .923 1.222c.286.121.593.182.923.182a2.26 2.26 0 0 0 1.586-.611l.39.65c-.286.26-.62.46-1.001.598a3.364 3.364 0 0 1-1.183.208c-.902 0-1.608-.303-2.12-.91-.502-.615-.753-1.46-.753-2.535 0-.546.06-1.005.182-1.378.12-.381.32-.737.598-1.066.51-.598 1.157-.897 1.937-.897.719 0 1.304.234 1.755.702.138.147.255.299.35.455.096.156.17.338.222.546.06.208.104.45.13.728.026.277.039.611.039 1.001v.143h-4.043Zm2.964-.767a4.478 4.478 0 0 0-.091-.871 1.71 1.71 0 0 0-.208-.572 1.195 1.195 0 0 0-.481-.416 1.519 1.519 0 0 0-.69-.156c-.944 0-1.442.672-1.494 2.015h2.964ZM45.792 62v-4.784c0-.633-.276-.949-.831-.949-.295 0-.572.091-.832.273a8.338 8.338 0 0 0-.884.728V62h-1.027v-4.602c0-.2-.013-.364-.04-.494a.85.85 0 0 0-.142-.338c-.147-.173-.368-.26-.663-.26-.251 0-.507.07-.767.208-.251.13-.546.347-.884.65V62h-.975v-5.018c0-.416-.035-.737-.104-.962-.06-.234-.104-.373-.13-.416l.988-.234c.026.052.07.178.13.377.07.19.104.386.104.585.104-.121.23-.238.377-.351a2.75 2.75 0 0 1 .468-.312c.173-.095.347-.169.52-.221.182-.06.355-.091.52-.091.32 0 .62.095.897.286.286.182.49.446.61.793.313-.33.655-.59 1.028-.78.373-.2.724-.299 1.053-.299.485 0 .875.165 1.17.494.303.32.455.741.455 1.261V62h-1.04Zm8.474-3.328c0 .52-.06.997-.182 1.43a3.362 3.362 0 0 1-.52 1.092 2.484 2.484 0 0 1-.82.715 2.22 2.22 0 0 1-1.052.247c-.338 0-.676-.082-1.014-.247a2.12 2.12 0 0 1-.767-.611c-.018.139-.035.26-.052.364-.018.095-.06.208-.13.338h-1.014c.07-.156.117-.351.143-.585.034-.243.052-.585.052-1.027v-6.37c0-.381-.026-.685-.078-.91a3.513 3.513 0 0 0-.091-.416l1.014-.195c.017.052.047.212.09.481.053.26.079.611.079 1.053v1.508c0 .147-.005.295-.013.442-.009.139-.013.23-.013.273.32-.312.624-.533.91-.663.286-.139.602-.208.949-.208.39 0 .736.078 1.04.234.312.147.576.364.793.65.216.286.381.633.494 1.04.121.407.182.862.182 1.365Zm-1.131-.065c0-.433-.03-.784-.091-1.053a1.706 1.706 0 0 0-.286-.689 1.173 1.173 0 0 0-.52-.403 1.601 1.601 0 0 0-.702-.156c-.32 0-.629.082-.923.247a1.984 1.984 0 0 0-.702.598v3.328c.173.225.407.412.702.559.294.147.593.221.897.221.225 0 .446-.052.663-.156.216-.104.385-.243.507-.416.121-.173.225-.425.312-.754.095-.338.143-.78.143-1.326Zm3.734.325v.156c0 .303.022.572.065.806a1.663 1.663 0 0 0 .923 1.222c.286.121.594.182.923.182a2.26 2.26 0 0 0 1.586-.611l.39.65c-.286.26-.62.46-1 .598a3.364 3.364 0 0 1-1.184.208c-.901 0-1.608-.303-2.119-.91-.503-.615-.754-1.46-.754-2.535 0-.546.06-1.005.182-1.378.121-.381.32-.737.598-1.066.511-.598 1.157-.897 1.937-.897.72 0 1.305.234 1.755.702.139.147.256.299.351.455.096.156.17.338.221.546.06.208.104.45.13.728.026.277.04.611.04 1.001v.143h-4.044Zm2.964-.767a4.478 4.478 0 0 0-.09-.871 1.71 1.71 0 0 0-.209-.572 1.195 1.195 0 0 0-.48-.416 1.519 1.519 0 0 0-.69-.156c-.944 0-1.443.672-1.495 2.015h2.964Zm5.532-1.664a.763.763 0 0 0-.286-.052c-.408 0-.767.156-1.08.468-.147.147-.247.29-.299.429-.052.13-.078.33-.078.598V62h-1.014v-4.992c0-.425-.034-.75-.103-.975-.061-.225-.1-.36-.117-.403l1.014-.273c.026.052.069.182.13.39.069.2.095.42.078.663.233-.33.51-.59.832-.78.329-.2.658-.299.988-.299a.91.91 0 0 1 .22.026.84.84 0 0 1 .13.039l-.415 1.105Z" opacity=".5"/><defs><clipPath id="a"><path fill="#fff" d="M4.056 4h34v34h-34z"/></clipPath><clipPath id="b"><path fill="#fff" d="M59.056 15.5h21v15h-21z"/></clipPath></defs></svg>