<svg xmlns="http://www.w3.org/2000/svg" width="87" height="65" fill="none"><rect width="85.256" height="41" x=".852" y=".5" fill="#fff" rx="1.5"/><g clip-path="url(#a)"><path fill="#FB651E" d="M38.352 4h-34v34h34V4Z"/><path fill="#fff" d="M20.206 23.224 14.37 12.292h2.668l3.432 6.918c.053.123.115.251.185.383.07.132.132.269.185.41a.81.81 0 0 1 .08.145c.017.044.034.083.052.119.088.175.167.347.238.514.07.168.132.322.185.463.14-.3.294-.621.462-.964.167-.344.339-.7.515-1.07l3.485-6.918h2.483l-5.89 11.064v7.05h-2.244v-7.182Z"/></g><path fill="#000" d="M57.608 24.6c0 .768-.2 1.504-.6 2.208-.384.704-.944 1.288-1.68 1.752a6.085 6.085 0 0 1-1.68.768c-.576.16-1.248.24-2.016.24-.992 0-1.92-.12-2.784-.36a9.624 9.624 0 0 1-2.496-1.128l.864-1.536c.688.496 1.384.856 2.088 1.08.72.224 1.496.336 2.328.336.624 0 1.128-.048 1.512-.144a3.326 3.326 0 0 0 1.104-.576c.784-.592 1.176-1.376 1.176-2.352 0-1.456-.984-2.48-2.952-3.072l-1.656-.504c-.752-.224-1.352-.44-1.8-.648a3.846 3.846 0 0 1-1.128-.816c-.688-.736-1.032-1.632-1.032-2.688 0-.704.128-1.344.384-1.92a4.345 4.345 0 0 1 1.08-1.488 4.81 4.81 0 0 1 1.68-.96c.656-.24 1.384-.36 2.184-.36 1.744 0 3.4.528 4.968 1.584l-.864 1.416c-.4-.256-.768-.472-1.104-.648a7.383 7.383 0 0 0-.984-.432 4.73 4.73 0 0 0-.936-.24 6.318 6.318 0 0 0-.984-.072c-1.04 0-1.848.24-2.424.72-.576.48-.864 1.144-.864 1.992 0 .672.208 1.208.624 1.608.432.4 1.136.76 2.112 1.08l1.896.6c.736.224 1.32.464 1.752.72.432.24.816.552 1.152.936.336.384.6.84.792 1.368.192.512.288 1.024.288 1.536Z"/><g fill="#000" clip-path="url(#b)"><path d="M68.532 22.8c0 1.027-.113 1.96-.34 2.8-.227.84-.547 1.56-.96 2.16a4.61 4.61 0 0 1-1.48 1.4c-.56.333-1.187.5-1.88.5-.853 0-1.567-.24-2.14-.72a5.61 5.61 0 0 1-1.4-1.78 9.507 9.507 0 0 1-.76-2.3c-.147-.813-.22-1.56-.22-2.24 0-.893.12-1.74.36-2.54s.567-1.5.98-2.1c.413-.6.893-1.073 1.44-1.42.56-.36 1.147-.54 1.76-.54.867 0 1.593.227 2.18.68.6.44 1.08.993 1.44 1.66.36.667.62 1.4.78 2.2.16.8.24 1.547.24 2.24Zm-1.76.02c0-.72-.027-1.327-.08-1.82a6.926 6.926 0 0 0-.34-1.52c-.227-.707-.553-1.247-.98-1.62a2.043 2.043 0 0 0-1.44-.58c-.4 0-.787.147-1.16.44-.373.293-.693.713-.96 1.26-.453.907-.68 2.147-.68 3.72 0 .733.033 1.393.1 1.98s.167 1.073.3 1.46c.24.72.573 1.287 1 1.7.427.4.887.6 1.38.6.453 0 .887-.173 1.3-.52.427-.347.767-.813 1.02-1.4.2-.467.34-1.007.42-1.62.08-.627.12-1.32.12-2.08ZM79.69 25.74c0 .627-.127 1.187-.38 1.68-.254.48-.594.893-1.02 1.24a4.373 4.373 0 0 1-1.44.76 5.526 5.526 0 0 1-1.68.26c-.64 0-1.234-.093-1.78-.28a4.71 4.71 0 0 1-1.4-.76 3.647 3.647 0 0 1-.94-1.18 3.432 3.432 0 0 1-.32-1.48c0-.44.073-.84.22-1.2.146-.373.346-.707.6-1 .253-.307.553-.567.9-.78a6.484 6.484 0 0 1 1.1-.54c-.76-.347-1.347-.787-1.76-1.32-.4-.547-.6-1.14-.6-1.78 0-.613.12-1.127.36-1.54a3.07 3.07 0 0 1 .96-1.02c.4-.267.853-.46 1.36-.58a6.66 6.66 0 0 1 1.54-.18c.573 0 1.093.073 1.56.22.48.147.886.353 1.22.62.333.267.593.587.78.96.186.373.28.787.28 1.24 0 .427-.08.813-.24 1.16-.16.333-.374.633-.64.9-.254.253-.547.48-.88.68-.334.2-.68.367-1.04.5.453.2.88.407 1.28.62.4.2.74.433 1.02.7.293.253.52.547.68.88.173.333.26.74.26 1.22Zm-1.64.38c0-.587-.174-1.067-.52-1.44-.227-.24-.567-.487-1.02-.74-.44-.267-1.1-.6-1.98-1-.307.173-.594.353-.86.54-.267.173-.5.38-.7.62-.2.227-.36.487-.48.78a2.81 2.81 0 0 0-.16 1c0 .8.266 1.44.8 1.92.546.467 1.266.7 2.16.7.826 0 1.493-.22 2-.66.506-.44.76-1.013.76-1.72Zm-.32-6.92c0-.613-.227-1.1-.68-1.46-.454-.373-1.067-.56-1.84-.56-.76 0-1.367.187-1.82.56-.454.36-.68.853-.68 1.48 0 .36.086.68.26.96.173.267.393.507.66.72.28.2.58.373.9.52.32.147.62.28.9.4.813-.427 1.4-.847 1.76-1.26.36-.427.54-.88.54-1.36Z"/></g><rect width="85.256" height="41" x=".852" y=".5" stroke="#FB651E" rx="1.5"/><path fill="#000" d="m29.577 62-.52-6.539a46.59 46.59 0 0 1-.026-.455 55.025 55.025 0 0 0-.026-.481c0-.156-.004-.286-.013-.39v-.182a1.443 1.443 0 0 0-.052.169 5.64 5.64 0 0 1-.078.351c-.034.139-.073.286-.117.442-.034.147-.069.29-.104.429L26.731 62h-.91l-1.769-6.331a73.81 73.81 0 0 1-.299-1.118 7.602 7.602 0 0 1-.143-.559 27.886 27.886 0 0 0-.039.676c-.008.173-.021.351-.039.533-.008.173-.017.325-.026.455L23.012 62h-1.027l.78-8.918h1.56l1.625 5.824c.113.416.195.767.247 1.053.061.286.096.45.104.494.009-.035.04-.195.091-.481.061-.286.139-.607.234-.962l1.677-5.928h1.573L30.643 62h-1.066Zm3.727-3.068v.156c0 .303.022.572.065.806a1.667 1.667 0 0 0 .923 1.222c.286.121.594.182.923.182a2.26 2.26 0 0 0 1.586-.611l.39.65c-.286.26-.62.46-1.001.598a3.363 3.363 0 0 1-1.183.208c-.901 0-1.608-.303-2.12-.91-.502-.615-.753-1.46-.753-2.535 0-.546.06-1.005.182-1.378.121-.381.32-.737.598-1.066.511-.598 1.157-.897 1.937-.897.72 0 1.304.234 1.755.702.139.147.256.299.35.455.096.156.17.338.222.546.06.208.104.45.13.728.026.277.039.611.039 1.001v.143h-4.043Zm2.964-.767a4.47 4.47 0 0 0-.091-.871 1.708 1.708 0 0 0-.208-.572 1.194 1.194 0 0 0-.481-.416 1.519 1.519 0 0 0-.69-.156c-.944 0-1.442.672-1.494 2.015h2.964ZM46.089 62v-4.784c0-.633-.277-.949-.832-.949-.294 0-.572.091-.832.273a8.338 8.338 0 0 0-.884.728V62h-1.027v-4.602c0-.2-.013-.364-.039-.494a.849.849 0 0 0-.143-.338c-.147-.173-.368-.26-.663-.26-.251 0-.507.07-.767.208-.251.13-.546.347-.884.65V62h-.975v-5.018c0-.416-.034-.737-.104-.962-.06-.234-.104-.373-.13-.416l.988-.234c.026.052.07.178.13.377.07.19.104.386.104.585.104-.121.23-.238.377-.351.148-.121.304-.225.468-.312a2.68 2.68 0 0 1 .52-.221c.182-.06.356-.091.52-.091.32 0 .62.095.897.286.286.182.49.446.611.793.312-.33.655-.59 1.027-.78.373-.2.724-.299 1.053-.299.486 0 .876.165 1.17.494.304.32.455.741.455 1.261V62h-1.04Zm8.473-3.328c0 .52-.06.997-.182 1.43a3.362 3.362 0 0 1-.52 1.092 2.484 2.484 0 0 1-.819.715 2.22 2.22 0 0 1-1.053.247c-.338 0-.676-.082-1.014-.247a2.12 2.12 0 0 1-.767-.611c-.017.139-.035.26-.052.364-.017.095-.06.208-.13.338h-1.014c.07-.156.117-.351.143-.585.035-.243.052-.585.052-1.027v-6.37c0-.381-.026-.685-.078-.91a3.513 3.513 0 0 0-.09-.416l1.013-.195c.017.052.048.212.091.481.052.26.078.611.078 1.053v1.508c0 .147-.004.295-.013.442-.009.139-.013.23-.013.273.32-.312.624-.533.91-.663.286-.139.602-.208.95-.208.39 0 .736.078 1.04.234.311.147.575.364.792.65.217.286.381.633.494 1.04.121.407.182.862.182 1.365Zm-1.13-.065c0-.433-.031-.784-.092-1.053a1.706 1.706 0 0 0-.286-.689 1.173 1.173 0 0 0-.52-.403 1.601 1.601 0 0 0-.702-.156c-.32 0-.628.082-.923.247a1.984 1.984 0 0 0-.702.598v3.328c.173.225.407.412.702.559.295.147.594.221.897.221.225 0 .446-.052.663-.156.217-.104.386-.243.507-.416s.225-.425.312-.754c.095-.338.143-.78.143-1.326Zm3.733.325v.156c0 .303.022.572.066.806a1.667 1.667 0 0 0 .922 1.222c.287.121.594.182.924.182a2.26 2.26 0 0 0 1.586-.611l.39.65c-.286.26-.62.46-1.002.598a3.363 3.363 0 0 1-1.183.208c-.9 0-1.607-.303-2.119-.91-.502-.615-.754-1.46-.754-2.535 0-.546.061-1.005.183-1.378.12-.381.32-.737.598-1.066.51-.598 1.156-.897 1.936-.897.72 0 1.305.234 1.755.702.14.147.256.299.352.455.095.156.168.338.22.546.061.208.105.45.13.728.027.277.04.611.04 1.001v.143h-4.044Zm2.965-.767a4.47 4.47 0 0 0-.092-.871 1.708 1.708 0 0 0-.207-.572 1.194 1.194 0 0 0-.482-.416 1.519 1.519 0 0 0-.688-.156c-.945 0-1.444.672-1.495 2.015h2.964Zm5.53-1.664a.762.762 0 0 0-.285-.052c-.407 0-.767.156-1.08.468-.147.147-.246.29-.298.429-.052.13-.078.33-.078.598V62h-1.014v-4.992c0-.425-.035-.75-.104-.975-.06-.225-.1-.36-.117-.403l1.014-.273c.026.052.07.182.13.39.07.2.095.42.078.663.234-.33.511-.59.832-.78.33-.2.659-.299.988-.299a.91.91 0 0 1 .22.026c.07.017.114.03.13.039l-.415 1.105Z" opacity=".5"/><defs><clipPath id="a"><path fill="#fff" d="M4.352 4h34v34h-34z"/></clipPath><clipPath id="b"><path fill="#fff" d="M59.352 15.5h21v15h-21z"/></clipPath></defs></svg>