<svg xmlns="http://www.w3.org/2000/svg" width="94" height="65" fill="none"><rect width="92.528" height="41" x=".802" y=".5" fill="#fff" rx="1.5"/><g clip-path="url(#a)"><path fill="#FB651E" d="M38.302 4h-34v34h34V4Z"/><path fill="#fff" d="m20.156 23.224-5.835-10.932h2.667l3.433 6.918c.052.123.114.251.184.383.07.132.132.269.185.41a.81.81 0 0 1 .08.145c.017.044.035.083.052.119.088.175.168.347.238.514.07.168.132.322.185.463.14-.3.295-.621.462-.964.167-.344.339-.7.515-1.07l3.486-6.918h2.482L22.4 23.356v7.05h-2.245v-7.182Z"/></g><path fill="#000" d="M61.062 29.232h-2.568l-2.04-9.144-.36-1.704a64.489 64.489 0 0 0-.264-1.416c-.064-.416-.12-.752-.168-1.008a4.309 4.309 0 0 1-.072-.504 5.604 5.604 0 0 0-.096.48c-.032.256-.088.592-.168 1.008-.064.416-.152.888-.264 1.416-.096.512-.2 1.04-.312 1.584l-2.016 9.288H50.19l-3.888-16.464h2.112l2.088 9.624c.112.512.216 1.048.312 1.608a49.43 49.43 0 0 1 .48 2.784c.048.336.08.536.096.6 0-.032.032-.208.096-.528.064-.336.136-.736.216-1.2a1594.61 1594.61 0 0 0 .624-3.024l2.184-9.864h2.232l2.28 10.224c.128.608.24 1.168.336 1.68.112.512.2.968.264 1.368.08.384.136.696.168.936.032.176.056.296.072.36.016-.064.04-.216.072-.456.064-.304.136-.688.216-1.152.08-.48.176-1.016.288-1.608.128-.592.256-1.192.384-1.8l2.04-9.552h1.968l-3.768 16.464Z"/><g fill="#000" clip-path="url(#b)"><path d="M74.274 29.34h-7.64v-.9c.387-.267.82-.627 1.3-1.08.493-.467 1.06-1.06 1.7-1.78a25.137 25.137 0 0 0 1.4-1.7c.4-.52.72-1 .96-1.44.253-.453.44-.88.56-1.28.12-.4.18-.787.18-1.16 0-.747-.227-1.36-.68-1.84-.453-.493-1.033-.74-1.74-.74-.293 0-.573.04-.84.12-.253.067-.5.16-.74.28-.24.107-.48.24-.72.4-.24.147-.493.3-.76.46l-.68-.76c.747-.64 1.467-1.113 2.16-1.42.693-.307 1.4-.46 2.12-.46.52 0 1.007.1 1.46.3.453.187.847.447 1.18.78.333.32.593.707.78 1.16.2.453.3.94.3 1.46 0 .573-.113 1.167-.34 1.78-.227.613-.54 1.2-.94 1.76a25.395 25.395 0 0 1-1.76 2.08l-.96 1c-.307.32-.593.607-.86.86-.253.253-.473.46-.66.62-.187.16-.32.26-.4.3.107-.013.333-.027.68-.04.347-.027.687-.04 1.02-.04h4.24l-.32 1.28ZM84.404 26.84h-.34a2.326 2.326 0 0 0-.2-.02v.28c.013.147.02.313.02.5v1.82l-1.54.46V27.14c.013-.173.02-.28.02-.32-.04 0-.134.007-.28.02h-5.68V25.6l4.74-9.36h1.74l-4.12 8.16c-.147.28-.294.547-.44.8l-.28.46c.04-.013.14-.027.3-.04.173-.013.333-.02.48-.02h3.1c.106 0 .2.007.28.02h.16c0-.04-.007-.127-.02-.26v-.3c0-.173.006-.34.02-.5.013-.173.026-.373.04-.6l.24-3.54 1.24-.38V25c0 .16-.007.3-.02.42v.2h.16c.093-.013.193-.02.3-.02h1.18v1.24h-1.1Z"/></g><rect width="92.528" height="41" x=".802" y=".5" stroke="#FB651E" rx="1.5"/><path fill="#000" d="m33.163 62-.52-6.539a46.59 46.59 0 0 1-.026-.455 55.025 55.025 0 0 0-.026-.481c0-.156-.004-.286-.013-.39v-.182a1.443 1.443 0 0 0-.052.169 5.64 5.64 0 0 1-.078.351c-.034.139-.073.286-.117.442-.034.147-.069.29-.104.429L30.317 62h-.91l-1.769-6.331a73.81 73.81 0 0 1-.299-1.118 7.602 7.602 0 0 1-.143-.559 27.886 27.886 0 0 0-.039.676c-.008.173-.021.351-.039.533-.008.173-.017.325-.026.455L26.598 62h-1.027l.78-8.918h1.56l1.625 5.824c.113.416.195.767.247 1.053.061.286.096.45.104.494.009-.035.04-.195.091-.481.061-.286.139-.607.234-.962l1.677-5.928h1.573L34.23 62h-1.066Zm3.727-3.068v.156c0 .303.022.572.065.806a1.667 1.667 0 0 0 .923 1.222c.286.121.594.182.923.182a2.26 2.26 0 0 0 1.586-.611l.39.65c-.286.26-.62.46-1.001.598a3.363 3.363 0 0 1-1.183.208c-.901 0-1.608-.303-2.12-.91-.502-.615-.753-1.46-.753-2.535 0-.546.06-1.005.182-1.378.121-.381.32-.737.598-1.066.511-.598 1.157-.897 1.937-.897.72 0 1.304.234 1.755.702.139.147.256.299.35.455.096.156.17.338.222.546.06.208.104.45.13.728.026.277.039.611.039 1.001v.143H36.89Zm2.964-.767a4.47 4.47 0 0 0-.091-.871 1.708 1.708 0 0 0-.208-.572 1.194 1.194 0 0 0-.481-.416 1.519 1.519 0 0 0-.69-.156c-.944 0-1.442.672-1.494 2.015h2.964ZM49.675 62v-4.784c0-.633-.277-.949-.832-.949-.294 0-.572.091-.832.273a8.338 8.338 0 0 0-.884.728V62H46.1v-4.602c0-.2-.013-.364-.039-.494a.849.849 0 0 0-.143-.338c-.147-.173-.368-.26-.663-.26-.251 0-.507.07-.767.208-.251.13-.546.347-.884.65V62h-.975v-5.018c0-.416-.034-.737-.104-.962-.06-.234-.104-.373-.13-.416l.988-.234c.026.052.07.178.13.377.07.19.104.386.104.585.104-.121.23-.238.377-.351.148-.121.304-.225.468-.312a2.68 2.68 0 0 1 .52-.221c.182-.06.356-.091.52-.091.32 0 .62.095.897.286.286.182.49.446.611.793.312-.33.655-.59 1.027-.78.373-.2.724-.299 1.053-.299.486 0 .876.165 1.17.494.304.32.455.741.455 1.261V62h-1.04Zm8.473-3.328c0 .52-.06.997-.182 1.43a3.36 3.36 0 0 1-.52 1.092 2.482 2.482 0 0 1-.819.715 2.22 2.22 0 0 1-1.053.247c-.338 0-.676-.082-1.014-.247a2.121 2.121 0 0 1-.767-.611 9.14 9.14 0 0 1-.052.364c-.017.095-.06.208-.13.338h-1.014c.07-.156.117-.351.143-.585.035-.243.052-.585.052-1.027v-6.37c0-.381-.026-.685-.078-.91a3.491 3.491 0 0 0-.09-.416l1.013-.195c.017.052.048.212.091.481.052.26.078.611.078 1.053v1.508c0 .147-.004.295-.013.442-.009.139-.013.23-.013.273.32-.312.624-.533.91-.663.286-.139.602-.208.95-.208.39 0 .736.078 1.04.234.311.147.575.364.792.65.217.286.381.633.494 1.04.121.407.182.862.182 1.365Zm-1.13-.065c0-.433-.031-.784-.092-1.053a1.705 1.705 0 0 0-.286-.689 1.173 1.173 0 0 0-.52-.403 1.601 1.601 0 0 0-.702-.156c-.32 0-.628.082-.923.247a1.984 1.984 0 0 0-.702.598v3.328c.173.225.407.412.702.559.295.147.594.221.897.221.225 0 .446-.052.663-.156.217-.104.386-.243.507-.416s.225-.425.312-.754c.095-.338.143-.78.143-1.326Zm3.733.325v.156c0 .303.022.572.066.806a1.667 1.667 0 0 0 .922 1.222c.287.121.594.182.924.182a2.26 2.26 0 0 0 1.586-.611l.39.65c-.286.26-.62.46-1.001.598a3.363 3.363 0 0 1-1.183.208c-.902 0-1.608-.303-2.12-.91-.502-.615-.754-1.46-.754-2.535 0-.546.061-1.005.182-1.378.122-.381.321-.737.599-1.066.51-.598 1.157-.897 1.936-.897.72 0 1.305.234 1.755.702.14.147.256.299.352.455.095.156.168.338.22.546.061.208.105.45.13.728.026.277.04.611.04 1.001v.143H60.75Zm2.965-.767a4.47 4.47 0 0 0-.092-.871 1.708 1.708 0 0 0-.208-.572 1.194 1.194 0 0 0-.48-.416 1.519 1.519 0 0 0-.69-.156c-.944 0-1.443.672-1.495 2.015h2.965Zm5.53-1.664a.762.762 0 0 0-.285-.052c-.407 0-.767.156-1.08.468-.147.147-.246.29-.298.429-.052.13-.078.33-.078.598V62H66.49v-4.992c0-.425-.035-.75-.104-.975-.06-.225-.1-.36-.117-.403l1.014-.273c.026.052.07.182.13.39.07.2.095.42.078.663.234-.33.511-.59.832-.78.33-.2.659-.299.988-.299a.91.91 0 0 1 .22.026c.07.017.114.03.13.039l-.415 1.105Z" opacity=".5"/><defs><clipPath id="a"><path fill="#fff" d="M4.302 4h34v34h-34z"/></clipPath><clipPath id="b"><path fill="#fff" d="M66.574 15.5h21v15h-21z"/></clipPath></defs></svg>