<svg xmlns="http://www.w3.org/2000/svg" width="95" height="65" fill="none"><rect width="92.528" height="41" x="1.018" y=".5" fill="#fff" rx="1.5"/><g clip-path="url(#a)"><path fill="#FB651E" d="M38.518 4h-34v34h34V4Z"/><path fill="#fff" d="m20.372 23.224-5.836-10.932h2.667l3.433 6.918c.053.123.115.251.185.383.07.132.132.269.185.41a.81.81 0 0 1 .08.145c.017.044.034.083.052.119.088.175.167.347.238.514.07.168.132.322.184.463.141-.3.295-.621.463-.964.167-.344.339-.7.515-1.07l3.485-6.918h2.483l-5.89 11.064v7.05h-2.244v-7.182Z"/></g><path fill="#000" d="M61.278 29.232H58.71l-2.04-9.144-.36-1.704a64.489 64.489 0 0 0-.264-1.416c-.064-.416-.12-.752-.168-1.008a4.309 4.309 0 0 1-.072-.504 5.604 5.604 0 0 0-.096.48c-.032.256-.088.592-.168 1.008-.064.416-.152.888-.264 1.416-.096.512-.2 1.04-.312 1.584l-2.016 9.288h-2.544l-3.888-16.464h2.112l2.088 9.624c.112.512.216 1.048.312 1.608a49.43 49.43 0 0 1 .48 2.784c.048.336.08.536.096.6 0-.032.032-.208.096-.528.064-.336.136-.736.216-1.2a1594.61 1594.61 0 0 0 .624-3.024l2.184-9.864h2.232l2.28 10.224c.128.608.24 1.168.336 1.68.112.512.2.968.264 1.368.08.384.136.696.168.936.032.176.056.296.072.36.016-.064.04-.216.072-.456.064-.304.136-.688.216-1.152.08-.48.176-1.016.288-1.608.128-.592.256-1.192.384-1.8l2.04-9.552h1.968l-3.768 16.464Z"/><g fill="#000" clip-path="url(#b)"><path d="M74.49 29.34h-7.64v-.9c.387-.267.82-.627 1.3-1.08.493-.467 1.06-1.06 1.7-1.78a25.107 25.107 0 0 0 1.4-1.7c.4-.52.72-1 .96-1.44.253-.453.44-.88.56-1.28.12-.4.18-.787.18-1.16 0-.747-.227-1.36-.68-1.84-.453-.493-1.033-.74-1.74-.74-.293 0-.573.04-.84.12-.254.067-.5.16-.74.28-.24.107-.48.24-.72.4-.24.147-.493.3-.76.46l-.68-.76c.746-.64 1.466-1.113 2.16-1.42.693-.307 1.4-.46 2.12-.46.52 0 1.007.1 1.46.3.453.187.846.447 1.18.78.333.32.593.707.78 1.16.2.453.3.94.3 1.46 0 .573-.114 1.167-.34 1.78-.227.613-.54 1.2-.94 1.76a25.375 25.375 0 0 1-1.76 2.08l-.96 1c-.307.32-.594.607-.86.86a12.1 12.1 0 0 1-.66.62c-.187.16-.32.26-.4.3.106-.013.333-.027.68-.04.347-.027.687-.04 1.02-.04h4.24l-.32 1.28ZM84.544 25.34c0 .44-.08.86-.24 1.26-.16.4-.38.773-.66 1.12-.267.347-.587.66-.96.94a6.635 6.635 0 0 1-1.2.68c-.466.2-1.026.36-1.68.48-.653.12-1.34.18-2.06.18-.24 0-.42-.007-.54-.02a3.3 3.3 0 0 1-.44-.04l-.36-1.08c.094.013.174.027.24.04.08.013.153.027.22.04h.56c.88 0 1.667-.087 2.36-.26.707-.187 1.36-.553 1.96-1.1.36-.32.62-.687.78-1.1.174-.413.26-.847.26-1.3 0-.547-.153-1.02-.46-1.42a2.199 2.199 0 0 0-1.2-.82 8.793 8.793 0 0 0-.4-.1 1.95 1.95 0 0 0-.42-.04 7.773 7.773 0 0 0-.62-.02c-.253-.013-.58-.02-.98-.02h-.2v-1.12h.18c.72 0 1.287-.013 1.7-.04.413-.027.74-.093.98-.2.347-.147.62-.393.82-.74.2-.347.3-.733.3-1.16 0-.64-.22-1.153-.66-1.54-.427-.4-1-.6-1.72-.6a4.3 4.3 0 0 0-1.7.34 6.806 6.806 0 0 0-1.48.84l-.7-.82c.254-.24.547-.46.88-.66.334-.213.68-.393 1.04-.54.373-.147.747-.26 1.12-.34a4.77 4.77 0 0 1 1.12-.14c.56 0 1.067.08 1.52.24.467.16.867.387 1.2.68.347.293.614.64.8 1.04.187.387.28.82.28 1.3 0 .72-.213 1.347-.64 1.88-.426.52-1.02.88-1.78 1.08.374.093.727.233 1.06.42.334.173.627.393.88.66.254.253.454.547.6.88.16.333.24.707.24 1.12Z"/></g><rect width="92.528" height="41" x="1.018" y=".5" stroke="#FB651E" rx="1.5"/><path fill="#000" d="m33.38 62-.52-6.539c-.01-.139-.018-.29-.027-.455a51.37 51.37 0 0 0-.026-.481c0-.156-.004-.286-.013-.39v-.182a1.465 1.465 0 0 0-.052.169 5.64 5.64 0 0 1-.078.351c-.035.139-.074.286-.117.442-.034.147-.07.29-.104.429L30.533 62h-.91l-1.769-6.331a73.81 73.81 0 0 1-.299-1.118 7.656 7.656 0 0 1-.143-.559 29.06 29.06 0 0 0-.039.676c-.009.173-.021.351-.039.533-.008.173-.017.325-.026.455L26.814 62h-1.027l.78-8.918h1.56l1.625 5.824c.113.416.195.767.247 1.053.06.286.096.45.104.494.009-.035.04-.195.091-.481.06-.286.139-.607.234-.962l1.677-5.928h1.573L34.445 62H33.38Zm3.726-3.068v.156c0 .303.021.572.065.806a1.663 1.663 0 0 0 .923 1.222c.286.121.593.182.923.182a2.26 2.26 0 0 0 1.586-.611l.39.65c-.286.26-.62.46-1.001.598a3.364 3.364 0 0 1-1.183.208c-.902 0-1.608-.303-2.12-.91-.502-.615-.753-1.46-.753-2.535 0-.546.06-1.005.182-1.378.121-.381.32-.737.598-1.066.511-.598 1.157-.897 1.937-.897.72 0 1.304.234 1.755.702.138.147.255.299.35.455.096.156.17.338.222.546.06.208.104.45.13.728.026.277.039.611.039 1.001v.143h-4.043Zm2.964-.767a4.478 4.478 0 0 0-.091-.871 1.712 1.712 0 0 0-.208-.572 1.195 1.195 0 0 0-.481-.416 1.519 1.519 0 0 0-.69-.156c-.944 0-1.442.672-1.494 2.015h2.964ZM49.89 62v-4.784c0-.633-.277-.949-.832-.949-.295 0-.572.091-.832.273a8.328 8.328 0 0 0-.884.728V62h-1.027v-4.602c0-.2-.013-.364-.039-.494a.85.85 0 0 0-.143-.338c-.147-.173-.368-.26-.663-.26-.251 0-.507.07-.767.208-.251.13-.546.347-.884.65V62h-.975v-5.018c0-.416-.035-.737-.104-.962-.06-.234-.104-.373-.13-.416l.988-.234c.026.052.07.178.13.377.07.19.104.386.104.585.104-.121.23-.238.377-.351a2.75 2.75 0 0 1 .468-.312c.173-.095.347-.169.52-.221.182-.06.355-.091.52-.091.32 0 .62.095.897.286.286.182.49.446.611.793.312-.33.654-.59 1.027-.78.373-.2.724-.299 1.053-.299.485 0 .875.165 1.17.494.303.32.455.741.455 1.261V62h-1.04Zm8.473-3.328c0 .52-.06.997-.182 1.43a3.36 3.36 0 0 1-.52 1.092 2.482 2.482 0 0 1-.82.715 2.22 2.22 0 0 1-1.052.247c-.338 0-.676-.082-1.014-.247a2.121 2.121 0 0 1-.767-.611 9.14 9.14 0 0 1-.052.364c-.017.095-.06.208-.13.338h-1.014c.07-.156.117-.351.143-.585.035-.243.052-.585.052-1.027v-6.37c0-.381-.026-.685-.078-.91a3.491 3.491 0 0 0-.091-.416l1.014-.195c.017.052.048.212.09.481.053.26.079.611.079 1.053v1.508c0 .147-.004.295-.013.442-.009.139-.013.23-.013.273.32-.312.624-.533.91-.663.286-.139.602-.208.949-.208.39 0 .737.078 1.04.234.312.147.576.364.793.65.217.286.381.633.494 1.04.121.407.182.862.182 1.365Zm-1.131-.065c0-.433-.03-.784-.091-1.053a1.705 1.705 0 0 0-.286-.689 1.173 1.173 0 0 0-.52-.403 1.601 1.601 0 0 0-.702-.156c-.32 0-.628.082-.923.247a1.984 1.984 0 0 0-.702.598v3.328c.173.225.407.412.702.559.295.147.594.221.897.221.225 0 .446-.052.663-.156.217-.104.386-.243.507-.416s.225-.425.312-.754c.095-.338.143-.78.143-1.326Zm3.734.325v.156c0 .303.022.572.065.806a1.663 1.663 0 0 0 .923 1.222c.286.121.594.182.923.182a2.26 2.26 0 0 0 1.586-.611l.39.65c-.286.26-.62.46-1 .598a3.364 3.364 0 0 1-1.184.208c-.901 0-1.607-.303-2.119-.91-.502-.615-.754-1.46-.754-2.535 0-.546.061-1.005.182-1.378.122-.381.321-.737.598-1.066.512-.598 1.157-.897 1.937-.897.72 0 1.305.234 1.755.702.139.147.256.299.351.455.096.156.17.338.221.546.061.208.104.45.13.728.026.277.04.611.04 1.001v.143h-4.044Zm2.964-.767a4.478 4.478 0 0 0-.09-.871 1.712 1.712 0 0 0-.209-.572 1.195 1.195 0 0 0-.48-.416 1.519 1.519 0 0 0-.69-.156c-.944 0-1.443.672-1.495 2.015h2.964Zm5.532-1.664a.763.763 0 0 0-.286-.052c-.408 0-.767.156-1.08.468-.147.147-.246.29-.298.429-.052.13-.078.33-.078.598V62h-1.014v-4.992c0-.425-.035-.75-.104-.975-.061-.225-.1-.36-.117-.403l1.014-.273c.026.052.069.182.13.39.069.2.095.42.078.663.234-.33.511-.59.832-.78.329-.2.658-.299.988-.299a.91.91 0 0 1 .22.026c.07.017.113.03.13.039l-.415 1.105Z" opacity=".5"/><defs><clipPath id="a"><path fill="#fff" d="M4.518 4h34v34h-34z"/></clipPath><clipPath id="b"><path fill="#fff" d="M66.79 15.5h21v15h-21z"/></clipPath></defs></svg>