<svg xmlns="http://www.w3.org/2000/svg" width="95" height="65" fill="none"><rect width="92.528" height="41" x="1.097" y=".5" fill="#fff" rx="1.5"/><g clip-path="url(#a)"><path fill="#FB651E" d="M38.597 4h-34v34h34V4Z"/><path fill="#fff" d="m20.451 23.224-5.835-10.932h2.667l3.432 6.918c.053.123.115.251.185.383.07.132.132.269.185.41a.81.81 0 0 1 .08.145c.017.044.035.083.052.119.088.175.167.347.238.514.07.168.132.322.185.463.14-.3.294-.621.462-.964.167-.344.339-.7.515-1.07l3.485-6.918h2.483l-5.89 11.064v7.05h-2.244v-7.182Z"/></g><path fill="#000" d="M61.357 29.232h-2.568l-2.04-9.144-.36-1.704a64.489 64.489 0 0 0-.264-1.416c-.064-.416-.12-.752-.168-1.008a4.309 4.309 0 0 1-.072-.504 5.604 5.604 0 0 0-.096.48c-.032.256-.088.592-.168 1.008-.064.416-.152.888-.264 1.416-.096.512-.2 1.04-.312 1.584l-2.016 9.288h-2.544l-3.888-16.464h2.112l2.088 9.624c.112.512.216 1.048.312 1.608a49.43 49.43 0 0 1 .48 2.784c.048.336.08.536.096.6 0-.032.032-.208.096-.528.064-.336.136-.736.216-1.2a1594.61 1594.61 0 0 0 .624-3.024l2.184-9.864h2.232l2.28 10.224c.128.608.24 1.168.336 1.68.112.512.2.968.264 1.368.08.384.136.696.168.936.032.176.056.296.072.36.016-.064.04-.216.072-.456.064-.304.136-.688.216-1.152.08-.48.176-1.016.288-1.608.128-.592.256-1.192.384-1.8l2.04-9.552h1.968l-3.768 16.464Z"/><g fill="#000" clip-path="url(#b)"><path d="M70.369 18.16c-.04.027-.113.08-.22.16a59.19 59.19 0 0 0-.38.24c-.133.093-.28.187-.44.28a3.589 3.589 0 0 1-.44.24 16.416 16.416 0 0 1-.96.44 7.04 7.04 0 0 0-.44.2 4.193 4.193 0 0 0-.28.12l-.34-.86 3.84-2.7h1.24v13.06h-1.58V18.16ZM83.7 25.74c0 .627-.127 1.187-.38 1.68-.253.48-.593.893-1.02 1.24a4.373 4.373 0 0 1-1.44.76 5.527 5.527 0 0 1-1.68.26c-.64 0-1.233-.093-1.78-.28a4.71 4.71 0 0 1-1.4-.76 3.647 3.647 0 0 1-.94-1.18 3.432 3.432 0 0 1-.32-1.48c0-.44.073-.84.22-1.2.147-.373.347-.707.6-1 .253-.307.553-.567.9-.78a6.48 6.48 0 0 1 1.1-.54c-.76-.347-1.347-.787-1.76-1.32-.4-.547-.6-1.14-.6-1.78 0-.613.12-1.127.36-1.54.253-.427.573-.767.96-1.02.4-.267.853-.46 1.36-.58a6.66 6.66 0 0 1 1.54-.18c.573 0 1.093.073 1.56.22.48.147.887.353 1.22.62.333.267.593.587.78.96.187.373.28.787.28 1.24 0 .427-.08.813-.24 1.16-.16.333-.373.633-.64.9-.253.253-.547.48-.88.68-.333.2-.68.367-1.04.5.453.2.88.407 1.28.62.4.2.74.433 1.02.7.293.253.52.547.68.88.173.333.26.74.26 1.22Zm-1.64.38c0-.587-.173-1.067-.52-1.44-.227-.24-.567-.487-1.02-.74-.44-.267-1.1-.6-1.98-1a10.54 10.54 0 0 0-.86.54c-.267.173-.5.38-.7.62-.2.227-.36.487-.48.78-.107.28-.16.613-.16 1 0 .8.267 1.44.8 1.92.547.467 1.267.7 2.16.7.827 0 1.493-.22 2-.66.507-.44.76-1.013.76-1.72Zm-.32-6.92c0-.613-.227-1.1-.68-1.46-.453-.373-1.067-.56-1.84-.56-.76 0-1.367.187-1.82.56-.453.36-.68.853-.68 1.48 0 .36.087.68.26.96.173.267.393.507.66.72.28.2.58.373.9.52.32.147.62.28.9.4.813-.427 1.4-.847 1.76-1.26.36-.427.54-.88.54-1.36Z"/></g><rect width="92.528" height="41" x="1.097" y=".5" stroke="#FB651E" rx="1.5"/><path fill="#000" d="m33.458 62-.52-6.539-.026-.455a51.37 51.37 0 0 0-.026-.481c0-.156-.004-.286-.013-.39v-.182a1.465 1.465 0 0 0-.052.169 5.64 5.64 0 0 1-.078.351c-.034.139-.073.286-.117.442-.034.147-.07.29-.104.429L30.612 62h-.91l-1.769-6.331a73.81 73.81 0 0 1-.299-1.118 7.656 7.656 0 0 1-.143-.559 29.06 29.06 0 0 0-.039.676c-.008.173-.021.351-.039.533-.008.173-.017.325-.026.455L26.893 62h-1.027l.78-8.918h1.56l1.625 5.824c.113.416.195.767.247 1.053.06.286.096.45.104.494.009-.035.04-.195.091-.481.06-.286.139-.607.234-.962l1.677-5.928h1.573L34.524 62h-1.066Zm3.727-3.068v.156c0 .303.021.572.065.806a1.663 1.663 0 0 0 .923 1.222c.286.121.593.182.923.182a2.26 2.26 0 0 0 1.586-.611l.39.65c-.286.26-.62.46-1.001.598a3.364 3.364 0 0 1-1.183.208c-.901 0-1.608-.303-2.12-.91-.502-.615-.753-1.46-.753-2.535 0-.546.06-1.005.182-1.378.121-.381.32-.737.598-1.066.511-.598 1.157-.897 1.937-.897.72 0 1.304.234 1.755.702.139.147.255.299.35.455.096.156.17.338.222.546.06.208.104.45.13.728.026.277.039.611.039 1.001v.143h-4.043Zm2.964-.767a4.478 4.478 0 0 0-.091-.871 1.712 1.712 0 0 0-.208-.572 1.195 1.195 0 0 0-.481-.416 1.519 1.519 0 0 0-.69-.156c-.944 0-1.442.672-1.494 2.015h2.964ZM49.97 62v-4.784c0-.633-.277-.949-.832-.949-.294 0-.572.091-.832.273a8.328 8.328 0 0 0-.884.728V62h-1.027v-4.602c0-.2-.013-.364-.039-.494a.85.85 0 0 0-.143-.338c-.147-.173-.368-.26-.663-.26-.251 0-.507.07-.767.208-.251.13-.546.347-.884.65V62h-.975v-5.018c0-.416-.035-.737-.104-.962-.06-.234-.104-.373-.13-.416l.988-.234c.026.052.07.178.13.377.07.19.104.386.104.585.104-.121.23-.238.377-.351a2.75 2.75 0 0 1 .468-.312c.174-.095.347-.169.52-.221.182-.06.355-.091.52-.091.32 0 .62.095.897.286.286.182.49.446.611.793.312-.33.654-.59 1.027-.78.373-.2.724-.299 1.053-.299.486 0 .876.165 1.17.494.303.32.455.741.455 1.261V62h-1.04Zm8.473-3.328c0 .52-.06.997-.182 1.43a3.358 3.358 0 0 1-.52 1.092 2.482 2.482 0 0 1-.819.715 2.22 2.22 0 0 1-1.053.247c-.338 0-.676-.082-1.014-.247a2.121 2.121 0 0 1-.767-.611 9.14 9.14 0 0 1-.052.364c-.017.095-.06.208-.13.338h-1.014c.07-.156.117-.351.143-.585.035-.243.052-.585.052-1.027v-6.37c0-.381-.026-.685-.078-.91a3.491 3.491 0 0 0-.091-.416l1.014-.195c.017.052.048.212.091.481.052.26.078.611.078 1.053v1.508c0 .147-.004.295-.013.442-.009.139-.013.23-.013.273.32-.312.624-.533.91-.663.286-.139.602-.208.949-.208.39 0 .737.078 1.04.234.312.147.576.364.793.65.217.286.381.633.494 1.04.121.407.182.862.182 1.365Zm-1.131-.065c0-.433-.03-.784-.091-1.053a1.705 1.705 0 0 0-.286-.689 1.173 1.173 0 0 0-.52-.403 1.601 1.601 0 0 0-.702-.156c-.32 0-.628.082-.923.247a1.984 1.984 0 0 0-.702.598v3.328c.173.225.407.412.702.559.295.147.594.221.897.221.225 0 .446-.052.663-.156.217-.104.386-.243.507-.416s.225-.425.312-.754c.095-.338.143-.78.143-1.326Zm3.735.325v.156c0 .303.021.572.065.806a1.663 1.663 0 0 0 .922 1.222c.287.121.594.182.924.182a2.26 2.26 0 0 0 1.585-.611l.39.65c-.286.26-.62.46-1 .598a3.364 3.364 0 0 1-1.184.208c-.9 0-1.607-.303-2.119-.91-.502-.615-.754-1.46-.754-2.535 0-.546.061-1.005.183-1.378.12-.381.32-.737.598-1.066.51-.598 1.157-.897 1.937-.897.719 0 1.304.234 1.755.702.138.147.255.299.35.455.096.156.17.338.222.546.06.208.103.45.13.728.025.277.038.611.038 1.001v.143h-4.042Zm2.963-.767a4.478 4.478 0 0 0-.09-.871 1.712 1.712 0 0 0-.209-.572 1.195 1.195 0 0 0-.48-.416 1.519 1.519 0 0 0-.69-.156c-.944 0-1.442.672-1.494 2.015h2.963Zm5.532-1.664a.763.763 0 0 0-.286-.052c-.408 0-.767.156-1.08.468-.147.147-.246.29-.298.429-.052.13-.078.33-.078.598V62h-1.014v-4.992c0-.425-.035-.75-.104-.975-.06-.225-.1-.36-.117-.403l1.014-.273c.026.052.07.182.13.39.07.2.095.42.078.663.234-.33.511-.59.832-.78.33-.2.658-.299.988-.299a.91.91 0 0 1 .22.026c.07.017.113.03.13.039l-.415 1.105Z" opacity=".5"/><defs><clipPath id="a"><path fill="#fff" d="M4.597 4h34v34h-34z"/></clipPath><clipPath id="b"><path fill="#fff" d="M66.869 15.5h21v15h-21z"/></clipPath></defs></svg>