<svg xmlns="http://www.w3.org/2000/svg" width="94" height="65" fill="none"><g clip-path="url(#a)"><path fill="#FB651E" d="M38.165 4h-34v34h34V4Z"/><path fill="#fff" d="m20.02 23.224-5.836-10.932h2.667l3.433 6.918c.053.123.114.251.185.383.07.132.132.269.184.41a.81.81 0 0 1 .08.145c.017.044.035.083.052.119.088.175.168.347.238.514.07.168.132.322.185.463.14-.3.295-.621.462-.964.167-.344.339-.7.515-1.07l3.486-6.918h2.482l-5.889 11.064v7.05H20.02v-7.182Z"/></g><path fill="#fff" d="M60.925 29.232h-2.568l-2.04-9.144-.36-1.704a64.489 64.489 0 0 0-.264-1.416c-.064-.416-.12-.752-.168-1.008a4.309 4.309 0 0 1-.072-.504 5.604 5.604 0 0 0-.096.48c-.032.256-.088.592-.168 1.008-.064.416-.152.888-.264 1.416-.096.512-.2 1.04-.312 1.584l-2.016 9.288h-2.544l-3.888-16.464h2.112l2.088 9.624c.112.512.216 1.048.312 1.608a49.43 49.43 0 0 1 .48 2.784c.048.336.08.536.096.6 0-.032.032-.208.096-.528.064-.336.136-.736.216-1.2a1594.61 1594.61 0 0 0 .624-3.024l2.184-9.864h2.232l2.28 10.224c.128.608.24 1.168.336 1.68.112.512.2.968.264 1.368.08.384.136.696.168.936.032.176.056.296.072.36.016-.064.04-.216.072-.456.064-.304.136-.688.216-1.152.08-.48.176-1.016.288-1.608.128-.592.256-1.192.384-1.8l2.04-9.552h1.968l-3.768 16.464Z"/><g fill="#fff" clip-path="url(#b)"><path d="M74.137 29.34h-7.64v-.9c.387-.267.82-.627 1.3-1.08.494-.467 1.06-1.06 1.7-1.78a25.137 25.137 0 0 0 1.4-1.7c.4-.52.72-1 .96-1.44.254-.453.44-.88.56-1.28.12-.4.18-.787.18-1.16 0-.747-.226-1.36-.68-1.84-.453-.493-1.033-.74-1.74-.74-.293 0-.573.04-.84.12-.253.067-.5.16-.74.28-.24.107-.48.24-.72.4-.24.147-.493.3-.76.46l-.68-.76c.747-.64 1.467-1.113 2.16-1.42.694-.307 1.4-.46 2.12-.46.52 0 1.007.1 1.46.3.454.187.847.447 1.18.78.334.32.594.707.78 1.16.2.453.3.94.3 1.46 0 .573-.113 1.167-.34 1.78-.226.613-.54 1.2-.94 1.76a25.395 25.395 0 0 1-1.76 2.08l-.96 1c-.306.32-.593.607-.86.86-.253.253-.473.46-.66.62-.186.16-.32.26-.4.3.107-.013.334-.027.68-.04.347-.027.687-.04 1.02-.04h4.24l-.32 1.28ZM85.842 22.8c0 1.027-.113 1.96-.34 2.8-.226.84-.546 1.56-.96 2.16a4.61 4.61 0 0 1-1.48 1.4c-.56.333-1.186.5-1.88.5-.853 0-1.566-.24-2.14-.72a5.609 5.609 0 0 1-1.4-1.78 9.506 9.506 0 0 1-.76-2.3c-.146-.813-.22-1.56-.22-2.24 0-.893.12-1.74.36-2.54s.567-1.5.98-2.1c.414-.6.894-1.073 1.44-1.42.56-.36 1.147-.54 1.76-.54.867 0 1.594.227 2.18.68.6.44 1.08.993 1.44 1.66.36.667.62 1.4.78 2.2.16.8.24 1.547.24 2.24Zm-1.76.02c0-.72-.026-1.327-.08-1.82a6.933 6.933 0 0 0-.34-1.52c-.226-.707-.553-1.247-.98-1.62a2.044 2.044 0 0 0-1.44-.58c-.4 0-.786.147-1.16.44-.373.293-.693.713-.96 1.26-.453.907-.68 2.147-.68 3.72 0 .733.034 1.393.1 1.98.067.587.167 1.073.3 1.46.24.72.574 1.287 1 1.7.427.4.887.6 1.38.6.454 0 .887-.173 1.3-.52.427-.347.767-.813 1.02-1.4.2-.467.34-1.007.42-1.62.08-.627.12-1.32.12-2.08Z"/></g><rect width="92.528" height="41" x=".665" y=".5" stroke="#FB651E" rx="1.5"/><path fill="#fff" d="m33.027 62-.52-6.539a46.59 46.59 0 0 1-.026-.455 55.025 55.025 0 0 0-.026-.481c0-.156-.005-.286-.013-.39v-.182a1.443 1.443 0 0 0-.052.169 5.64 5.64 0 0 1-.078.351c-.035.139-.074.286-.117.442l-.104.429L30.18 62h-.91l-1.768-6.331a73.81 73.81 0 0 1-.3-1.118 7.602 7.602 0 0 1-.142-.559 27.886 27.886 0 0 0-.039.676c-.01.173-.022.351-.04.533-.008.173-.017.325-.025.455L26.462 62h-1.027l.78-8.918h1.56l1.625 5.824c.112.416.195.767.247 1.053l.104.494c.008-.035.039-.195.09-.481.061-.286.14-.607.235-.962l1.677-5.928h1.573L34.093 62h-1.066Zm3.726-3.068v.156c0 .303.022.572.065.806a1.667 1.667 0 0 0 .923 1.222c.286.121.594.182.923.182a2.26 2.26 0 0 0 1.586-.611l.39.65c-.286.26-.62.46-1 .598a3.363 3.363 0 0 1-1.184.208c-.901 0-1.607-.303-2.119-.91-.502-.615-.754-1.46-.754-2.535 0-.546.06-1.005.182-1.378.122-.381.32-.737.598-1.066.512-.598 1.157-.897 1.937-.897.72 0 1.305.234 1.755.702.139.147.256.299.351.455.096.156.17.338.221.546.06.208.104.45.13.728.026.277.04.611.04 1.001v.143h-4.044Zm2.964-.767a4.47 4.47 0 0 0-.09-.871 1.708 1.708 0 0 0-.209-.572 1.194 1.194 0 0 0-.48-.416 1.519 1.519 0 0 0-.69-.156c-.944 0-1.443.672-1.495 2.015h2.964ZM49.54 62v-4.784c0-.633-.278-.949-.833-.949-.294 0-.572.091-.832.273a8.338 8.338 0 0 0-.884.728V62h-1.026v-4.602c0-.2-.014-.364-.04-.494a.849.849 0 0 0-.142-.338c-.148-.173-.369-.26-.663-.26-.252 0-.508.07-.767.208-.252.13-.546.347-.884.65V62h-.976v-5.018c0-.416-.034-.737-.103-.962-.061-.234-.105-.373-.13-.416l.987-.234c.026.052.07.178.13.377.07.19.105.386.105.585.103-.121.23-.238.377-.351.147-.121.303-.225.468-.312a2.68 2.68 0 0 1 .52-.221c.182-.06.355-.091.52-.091.32 0 .62.095.897.286.285.182.49.446.61.793.313-.33.655-.59 1.028-.78.372-.2.723-.299 1.052-.299.486 0 .876.165 1.17.494.304.32.456.741.456 1.261V62h-1.04Zm8.472-3.328c0 .52-.06.997-.182 1.43a3.362 3.362 0 0 1-.52 1.092 2.484 2.484 0 0 1-.819.715 2.22 2.22 0 0 1-1.053.247c-.338 0-.676-.082-1.014-.247a2.12 2.12 0 0 1-.767-.611c-.017.139-.034.26-.052.364-.017.095-.06.208-.13.338H52.46c.07-.156.117-.351.143-.585.035-.243.052-.585.052-1.027v-6.37c0-.381-.026-.685-.078-.91a3.513 3.513 0 0 0-.09-.416l1.013-.195c.018.052.048.212.091.481.052.26.078.611.078 1.053v1.508c0 .147-.004.295-.013.442-.008.139-.013.23-.013.273.321-.312.624-.533.91-.663.286-.139.603-.208.95-.208.39 0 .736.078 1.04.234.311.147.576.364.792.65.217.286.382.633.494 1.04.122.407.182.862.182 1.365Zm-1.13-.065c0-.433-.031-.784-.092-1.053a1.706 1.706 0 0 0-.286-.689 1.173 1.173 0 0 0-.52-.403 1.601 1.601 0 0 0-.702-.156c-.32 0-.628.082-.923.247a1.984 1.984 0 0 0-.702.598v3.328c.174.225.408.412.702.559.295.147.594.221.897.221.226 0 .447-.052.663-.156.217-.104.386-.243.507-.416.122-.173.226-.425.312-.754.096-.338.143-.78.143-1.326Zm3.734.325v.156c0 .303.021.572.065.806a1.667 1.667 0 0 0 .923 1.222c.286.121.593.182.923.182a2.26 2.26 0 0 0 1.586-.611l.39.65c-.286.26-.62.46-1.001.598a3.363 3.363 0 0 1-1.183.208c-.901 0-1.608-.303-2.12-.91-.502-.615-.753-1.46-.753-2.535 0-.546.06-1.005.182-1.378.121-.381.32-.737.598-1.066.511-.598 1.157-.897 1.937-.897.72 0 1.304.234 1.755.702.138.147.255.299.35.455.096.156.17.338.222.546.06.208.104.45.13.728.026.277.039.611.039 1.001v.143h-4.043Zm2.964-.767a4.47 4.47 0 0 0-.091-.871 1.708 1.708 0 0 0-.208-.572 1.194 1.194 0 0 0-.481-.416 1.519 1.519 0 0 0-.69-.156c-.944 0-1.442.672-1.494 2.015h2.964Zm5.531-1.664a.762.762 0 0 0-.286-.052c-.407 0-.767.156-1.079.468-.147.147-.247.29-.299.429-.052.13-.078.33-.078.598V62h-1.014v-4.992c0-.425-.034-.75-.104-.975-.06-.225-.1-.36-.117-.403l1.014-.273c.026.052.07.182.13.39.07.2.096.42.078.663.234-.33.511-.59.832-.78.33-.2.659-.299.988-.299a.91.91 0 0 1 .221.026c.07.017.113.03.13.039l-.416 1.105Z" opacity=".7"/><defs><clipPath id="a"><path fill="#fff" d="M4.165 4h34v34h-34z"/></clipPath><clipPath id="b"><path fill="#fff" d="M66.437 15.5h21v15h-21z"/></clipPath></defs></svg>