<svg xmlns="http://www.w3.org/2000/svg" width="94" height="65" fill="none"><g clip-path="url(#a)"><path fill="#FB651E" d="M38.096 4h-34v34h34V4Z"/><path fill="#fff" d="m19.95 23.224-5.836-10.932h2.667l3.433 6.918c.053.123.115.251.185.383.07.132.132.269.185.41a.81.81 0 0 1 .08.145c.017.044.034.083.052.119.088.175.167.347.238.514.07.168.132.322.184.463.141-.3.295-.621.462-.964.168-.344.34-.7.515-1.07l3.486-6.918h2.482l-5.888 11.064v7.05H19.95v-7.182Z"/></g><path fill="#fff" d="M60.856 29.232h-2.568l-2.04-9.144-.36-1.704a64.489 64.489 0 0 0-.264-1.416c-.064-.416-.12-.752-.168-1.008a4.309 4.309 0 0 1-.072-.504 5.604 5.604 0 0 0-.096.48c-.032.256-.088.592-.168 1.008-.064.416-.152.888-.264 1.416-.096.512-.2 1.04-.312 1.584l-2.016 9.288h-2.544l-3.888-16.464h2.112l2.088 9.624c.112.512.216 1.048.312 1.608a49.43 49.43 0 0 1 .48 2.784c.048.336.08.536.096.6 0-.032.032-.208.096-.528.064-.336.136-.736.216-1.2a1594.61 1594.61 0 0 0 .624-3.024l2.184-9.864h2.232l2.28 10.224c.128.608.24 1.168.336 1.68.112.512.2.968.264 1.368.08.384.136.696.168.936.032.176.056.296.072.36.016-.064.04-.216.072-.456.064-.304.136-.688.216-1.152.08-.48.176-1.016.288-1.608.128-.592.256-1.192.384-1.8l2.04-9.552h1.968l-3.768 16.464Z"/><g fill="#fff" clip-path="url(#b)"><path d="M69.868 18.16c-.04.027-.114.08-.22.16a56.52 56.52 0 0 0-.38.24c-.134.093-.28.187-.44.28a3.596 3.596 0 0 1-.44.24 16.552 16.552 0 0 1-.96.44 7.04 7.04 0 0 0-.44.2 4.17 4.17 0 0 0-.28.12l-.34-.86 3.84-2.7h1.24v13.06h-1.58V18.16ZM83.139 25.32c0 .627-.114 1.207-.34 1.74-.227.52-.54.98-.94 1.38a4.057 4.057 0 0 1-1.38.9 4.402 4.402 0 0 1-1.74.34c-.68 0-1.3-.127-1.86-.38a4.384 4.384 0 0 1-1.42-1.1 5.27 5.27 0 0 1-.9-1.72c-.214-.667-.32-1.413-.32-2.24 0-1.08.153-2.027.46-2.84.306-.827.793-1.633 1.46-2.42.746-.88 1.56-1.6 2.44-2.16.893-.56 1.88-1 2.96-1.32l.38 1c-.934.307-1.827.76-2.68 1.36-.84.6-1.534 1.3-2.08 2.1-.227.32-.407.673-.54 1.06-.134.373-.267.84-.4 1.4.346-.32.78-.573 1.3-.76a4.872 4.872 0 0 1 1.62-.28c.56 0 1.08.1 1.56.3.493.2.913.473 1.26.82.36.347.64.767.84 1.26.213.48.32 1 .32 1.56Zm-1.8.04c0-.853-.22-1.52-.66-2a2.324 2.324 0 0 0-.84-.56 2.373 2.373 0 0 0-1-.22c-.454 0-.914.093-1.38.28a4.835 4.835 0 0 0-1.32.78c-.027.227-.047.407-.06.54v.48c0 .44.04.887.12 1.34.08.453.22.86.42 1.22.2.36.466.66.8.9.346.227.786.34 1.32.34.8 0 1.433-.273 1.9-.82.466-.56.7-1.32.7-2.28Z"/></g><rect width="92.528" height="41" x=".596" y=".5" stroke="#FB651E" rx="1.5"/><path fill="#fff" d="m32.957 62-.52-6.539a46.59 46.59 0 0 1-.026-.455 55.025 55.025 0 0 0-.026-.481c0-.156-.004-.286-.013-.39v-.182a1.443 1.443 0 0 0-.052.169 5.64 5.64 0 0 1-.078.351c-.035.139-.074.286-.117.442l-.104.429L30.11 62h-.91l-1.768-6.331a73.81 73.81 0 0 1-.299-1.118 7.602 7.602 0 0 1-.143-.559 27.886 27.886 0 0 0-.039.676c-.009.173-.022.351-.039.533-.009.173-.017.325-.026.455L26.392 62h-1.027l.78-8.918h1.56l1.625 5.824c.113.416.195.767.247 1.053l.104.494c.009-.035.039-.195.091-.481.06-.286.139-.607.234-.962l1.677-5.928h1.573L34.023 62h-1.066Zm3.727-3.068v.156c0 .303.021.572.065.806a1.667 1.667 0 0 0 .923 1.222c.286.121.593.182.923.182a2.26 2.26 0 0 0 1.586-.611l.39.65c-.286.26-.62.46-1.001.598a3.363 3.363 0 0 1-1.183.208c-.902 0-1.608-.303-2.12-.91-.502-.615-.753-1.46-.753-2.535 0-.546.06-1.005.182-1.378.121-.381.32-.737.598-1.066.511-.598 1.157-.897 1.937-.897.719 0 1.304.234 1.755.702.138.147.255.299.35.455.096.156.17.338.222.546.06.208.104.45.13.728.026.277.039.611.039 1.001v.143h-4.043Zm2.964-.767a4.47 4.47 0 0 0-.091-.871 1.708 1.708 0 0 0-.208-.572 1.194 1.194 0 0 0-.481-.416 1.519 1.519 0 0 0-.69-.156c-.944 0-1.442.672-1.494 2.015h2.964ZM49.468 62v-4.784c0-.633-.276-.949-.831-.949-.295 0-.572.091-.832.273a8.338 8.338 0 0 0-.884.728V62h-1.027v-4.602c0-.2-.013-.364-.04-.494a.849.849 0 0 0-.142-.338c-.147-.173-.368-.26-.663-.26-.251 0-.507.07-.767.208-.251.13-.546.347-.884.65V62h-.975v-5.018c0-.416-.035-.737-.104-.962-.06-.234-.104-.373-.13-.416l.988-.234c.026.052.07.178.13.377.07.19.104.386.104.585.104-.121.23-.238.377-.351.147-.121.303-.225.468-.312a2.68 2.68 0 0 1 .52-.221c.182-.06.355-.091.52-.091.32 0 .62.095.897.286.286.182.49.446.61.793.313-.33.655-.59 1.028-.78.373-.2.724-.299 1.053-.299.485 0 .875.165 1.17.494.303.32.455.741.455 1.261V62h-1.04Zm8.474-3.328c0 .52-.06.997-.182 1.43a3.36 3.36 0 0 1-.52 1.092 2.482 2.482 0 0 1-.82.715 2.22 2.22 0 0 1-1.052.247c-.338 0-.676-.082-1.014-.247a2.121 2.121 0 0 1-.767-.611 9.14 9.14 0 0 1-.052.364c-.017.095-.06.208-.13.338H52.39c.07-.156.117-.351.143-.585.035-.243.052-.585.052-1.027v-6.37c0-.381-.026-.685-.078-.91a3.491 3.491 0 0 0-.091-.416l1.014-.195c.017.052.047.212.09.481.053.26.079.611.079 1.053v1.508c0 .147-.005.295-.013.442-.009.139-.013.23-.013.273.32-.312.624-.533.91-.663.286-.139.602-.208.949-.208.39 0 .736.078 1.04.234.312.147.576.364.793.65.217.286.381.633.494 1.04.121.407.182.862.182 1.365Zm-1.131-.065c0-.433-.03-.784-.091-1.053a1.705 1.705 0 0 0-.286-.689 1.173 1.173 0 0 0-.52-.403 1.601 1.601 0 0 0-.702-.156c-.32 0-.629.082-.923.247a1.984 1.984 0 0 0-.702.598v3.328c.173.225.407.412.702.559.294.147.593.221.897.221.225 0 .446-.052.663-.156.217-.104.386-.243.507-.416s.225-.425.312-.754c.095-.338.143-.78.143-1.326Zm3.734.325v.156c0 .303.022.572.065.806a1.663 1.663 0 0 0 .923 1.222c.286.121.594.182.923.182a2.26 2.26 0 0 0 1.586-.611l.39.65c-.286.26-.62.46-1 .598a3.364 3.364 0 0 1-1.184.208c-.901 0-1.607-.303-2.119-.91-.502-.615-.754-1.46-.754-2.535 0-.546.06-1.005.182-1.378.122-.381.32-.737.598-1.066.512-.598 1.157-.897 1.937-.897.72 0 1.305.234 1.755.702.139.147.256.299.351.455.096.156.17.338.221.546.06.208.104.45.13.728.026.277.04.611.04 1.001v.143h-4.044Zm2.964-.767a4.478 4.478 0 0 0-.09-.871 1.712 1.712 0 0 0-.209-.572 1.195 1.195 0 0 0-.48-.416 1.519 1.519 0 0 0-.69-.156c-.944 0-1.443.672-1.495 2.015h2.964Zm5.531-1.664a.762.762 0 0 0-.286-.052c-.407 0-.767.156-1.079.468-.147.147-.246.29-.299.429-.052.13-.078.33-.078.598V62h-1.014v-4.992c0-.425-.034-.75-.104-.975-.06-.225-.1-.36-.117-.403l1.014-.273c.026.052.07.182.13.39.07.2.096.42.079.663.233-.33.51-.59.832-.78.329-.2.658-.299.988-.299a.91.91 0 0 1 .22.026c.07.017.113.03.13.039l-.416 1.105Z" opacity=".7"/><defs><clipPath id="a"><path fill="#fff" d="M4.096 4h34v34h-34z"/></clipPath><clipPath id="b"><path fill="#fff" d="M66.368 15.5h21v15h-21z"/></clipPath></defs></svg>