<svg xmlns="http://www.w3.org/2000/svg" width="94" height="65" fill="none"><rect width="92.528" height="41" x=".812" y=".5" fill="#fff" rx="1.5"/><g clip-path="url(#a)"><path fill="#FB651E" d="M38.312 4h-34v34h34V4Z"/><path fill="#fff" d="M20.166 23.224 14.33 12.292h2.667l3.433 6.918c.053.123.114.251.185.383.07.132.132.269.185.41a.81.81 0 0 1 .079.145c.017.044.035.083.053.119.088.175.167.347.237.514.07.168.132.322.185.463.141-.3.295-.621.462-.964.168-.344.34-.7.515-1.07l3.486-6.918h2.482L22.41 23.356v7.05h-2.244v-7.182Z"/></g><path fill="#000" d="M61.072 29.232h-2.569l-2.04-9.144c-.127-.608-.248-1.176-.36-1.704a64.489 64.489 0 0 0-.264-1.416c-.063-.416-.12-.752-.167-1.008a4.309 4.309 0 0 1-.072-.504 5.604 5.604 0 0 0-.096.48c-.032.256-.088.592-.168 1.008-.064.416-.152.888-.264 1.416-.097.512-.2 1.04-.313 1.584l-2.016 9.288H50.2l-3.887-16.464h2.111l2.088 9.624c.112.512.216 1.048.313 1.608a49.43 49.43 0 0 1 .48 2.784c.047.336.08.536.096.6 0-.032.032-.208.096-.528.063-.336.136-.736.215-1.2a1594.61 1594.61 0 0 0 .625-3.024l2.184-9.864h2.231l2.28 10.224c.129.608.24 1.168.337 1.68.111.512.2.968.264 1.368.08.384.136.696.168.936.032.176.056.296.072.36.016-.064.04-.216.072-.456.063-.304.136-.688.215-1.152.08-.48.177-1.016.288-1.608.128-.592.256-1.192.384-1.8l2.04-9.552h1.968l-3.767 16.464Z"/><g fill="#000" clip-path="url(#b)"><path d="M70.084 18.16c-.04.027-.114.08-.22.16a59.19 59.19 0 0 0-.38.24c-.134.093-.28.187-.44.28a3.589 3.589 0 0 1-.44.24 16.416 16.416 0 0 1-.96.44 7.04 7.04 0 0 0-.44.2 4.193 4.193 0 0 0-.28.12l-.34-.86 3.84-2.7h1.24v13.06h-1.58V18.16ZM81.985 25.28a4.285 4.285 0 0 1-.7 2.32 4.823 4.823 0 0 1-.78.96 4.164 4.164 0 0 1-1.02.72c-.453.227-.98.407-1.58.54a7 7 0 0 1-1.7.22c-.147 0-.28-.007-.4-.02l-.34-.02c-.106 0-.22-.013-.34-.04l-.4-.1-.28-1.2c.134.067.254.12.36.16.12.027.233.053.34.08.107.013.22.027.34.04h.44c.614 0 1.18-.093 1.7-.28.534-.187.993-.44 1.38-.76.387-.333.694-.72.92-1.16.227-.453.34-.933.34-1.44 0-.613-.166-1.147-.5-1.6-.253-.347-.58-.6-.98-.76-.386-.16-.893-.24-1.52-.24-.48 0-.947.04-1.4.12-.453.067-.826.173-1.12.32l.64-6.74h5.92l-.24 1.32h-4.26l-.34 3.86c.173-.013.313-.027.42-.04.12-.013.227-.02.32-.02.094-.013.187-.02.28-.02h.34c1.453 0 2.56.447 3.32 1.34.267.333.474.713.62 1.14.147.427.22.86.22 1.3Z"/></g><rect width="92.528" height="41" x=".812" y=".5" stroke="#FB651E" rx="1.5"/><path fill="#000" d="m33.173 62-.52-6.539c-.009-.139-.017-.29-.026-.455a51.37 51.37 0 0 0-.026-.481c0-.156-.005-.286-.013-.39v-.182a1.465 1.465 0 0 0-.052.169 5.64 5.64 0 0 1-.078.351c-.035.139-.074.286-.117.442l-.104.429L30.326 62h-.91l-1.768-6.331a73.81 73.81 0 0 1-.3-1.118 7.656 7.656 0 0 1-.142-.559 29.06 29.06 0 0 0-.039.676c-.009.173-.022.351-.04.533-.008.173-.017.325-.025.455L26.608 62H25.58l.78-8.918h1.56l1.625 5.824c.113.416.195.767.247 1.053l.104.494c.009-.035.039-.195.09-.481.062-.286.14-.607.235-.962l1.677-5.928h1.573L34.239 62h-1.066Zm3.727-3.068v.156c0 .303.021.572.065.806a1.663 1.663 0 0 0 .922 1.222c.286.121.594.182.923.182a2.26 2.26 0 0 0 1.587-.611l.39.65c-.286.26-.62.46-1.002.598a3.364 3.364 0 0 1-1.182.208c-.902 0-1.608-.303-2.12-.91-.502-.615-.753-1.46-.753-2.535 0-.546.06-1.005.181-1.378.122-.381.321-.737.599-1.066.51-.598 1.157-.897 1.937-.897.719 0 1.304.234 1.755.702.138.147.255.299.35.455.096.156.17.338.221.546.061.208.104.45.13.728.026.277.04.611.04 1.001v.143H36.9Zm2.964-.767a4.478 4.478 0 0 0-.091-.871 1.712 1.712 0 0 0-.209-.572 1.195 1.195 0 0 0-.48-.416 1.519 1.519 0 0 0-.69-.156c-.944 0-1.442.672-1.494 2.015h2.964ZM49.684 62v-4.784c0-.633-.277-.949-.831-.949-.295 0-.572.091-.832.273a8.328 8.328 0 0 0-.884.728V62H46.11v-4.602c0-.2-.013-.364-.04-.494a.85.85 0 0 0-.142-.338c-.148-.173-.369-.26-.663-.26-.252 0-.507.07-.767.208-.252.13-.546.347-.884.65V62h-.975v-5.018c0-.416-.035-.737-.104-.962-.06-.234-.104-.373-.13-.416l.988-.234c.026.052.07.178.13.377.07.19.104.386.104.585.104-.121.23-.238.377-.351a2.75 2.75 0 0 1 .468-.312c.173-.095.346-.169.52-.221.182-.06.355-.091.52-.091.32 0 .62.095.897.286.286.182.49.446.61.793.313-.33.655-.59 1.028-.78.372-.2.723-.299 1.053-.299.485 0 .875.165 1.17.494.303.32.455.741.455 1.261V62h-1.04Zm8.474-3.328c0 .52-.061.997-.182 1.43a3.36 3.36 0 0 1-.52 1.092 2.482 2.482 0 0 1-.82.715 2.22 2.22 0 0 1-1.052.247c-.338 0-.676-.082-1.014-.247a2.121 2.121 0 0 1-.767-.611 9.14 9.14 0 0 1-.052.364c-.018.095-.061.208-.13.338h-1.014c.069-.156.117-.351.143-.585.034-.243.052-.585.052-1.027v-6.37c0-.381-.026-.685-.078-.91a3.491 3.491 0 0 0-.091-.416l1.014-.195c.017.052.047.212.09.481.053.26.079.611.079 1.053v1.508c0 .147-.005.295-.013.442-.01.139-.013.23-.013.273.32-.312.624-.533.91-.663.286-.139.602-.208.949-.208.39 0 .736.078 1.04.234.312.147.576.364.793.65.216.286.38.633.494 1.04.12.407.182.862.182 1.365Zm-1.131-.065c0-.433-.03-.784-.091-1.053a1.705 1.705 0 0 0-.286-.689 1.173 1.173 0 0 0-.52-.403 1.601 1.601 0 0 0-.702-.156c-.321 0-.629.082-.923.247a1.984 1.984 0 0 0-.702.598v3.328c.173.225.407.412.702.559.294.147.593.221.897.221.225 0 .446-.052.663-.156.216-.104.385-.243.507-.416.12-.173.225-.425.312-.754.095-.338.143-.78.143-1.326Zm3.734.325v.156c0 .303.022.572.065.806a1.663 1.663 0 0 0 .923 1.222c.286.121.594.182.923.182a2.26 2.26 0 0 0 1.586-.611l.39.65c-.286.26-.62.46-1 .598a3.364 3.364 0 0 1-1.184.208c-.901 0-1.608-.303-2.119-.91-.503-.615-.754-1.46-.754-2.535 0-.546.06-1.005.182-1.378.121-.381.32-.737.598-1.066.511-.598 1.157-.897 1.937-.897.72 0 1.304.234 1.755.702.139.147.256.299.351.455.095.156.17.338.221.546.06.208.104.45.13.728.026.277.04.611.04 1.001v.143H60.76Zm2.964-.767a4.478 4.478 0 0 0-.09-.871 1.712 1.712 0 0 0-.209-.572 1.195 1.195 0 0 0-.48-.416 1.519 1.519 0 0 0-.69-.156c-.945 0-1.443.672-1.495 2.015h2.964Zm5.531-1.664a.763.763 0 0 0-.286-.052c-.407 0-.767.156-1.079.468-.147.147-.247.29-.299.429-.052.13-.078.33-.078.598V62H66.5v-4.992c0-.425-.034-.75-.104-.975-.06-.225-.1-.36-.117-.403l1.014-.273c.026.052.07.182.13.39.07.2.096.42.078.663.234-.33.512-.59.832-.78.33-.2.659-.299.988-.299a.91.91 0 0 1 .221.026c.07.017.113.03.13.039l-.416 1.105Z" opacity=".5"/><defs><clipPath id="a"><path fill="#fff" d="M4.312 4h34v34h-34z"/></clipPath><clipPath id="b"><path fill="#fff" d="M66.584 15.5h21v15h-21z"/></clipPath></defs></svg>