<svg xmlns="http://www.w3.org/2000/svg" width="95" height="65" fill="none"><rect width="92.528" height="41" x="1.449" y=".5" fill="#fff" rx="1.5"/><g clip-path="url(#a)"><path fill="#FB651E" d="M38.95 4h-34v34h34V4Z"/><path fill="#fff" d="m20.804 23.224-5.836-10.932h2.667l3.433 6.918c.053.123.114.251.185.383.07.132.132.269.185.41a.81.81 0 0 1 .079.145c.018.044.035.083.053.119.088.175.167.347.237.514.07.168.132.322.185.463.141-.3.295-.621.462-.964.168-.344.34-.7.515-1.07l3.486-6.918h2.482l-5.889 11.064v7.05h-2.244v-7.182Z"/></g><path fill="#000" d="M61.71 29.232H59.14l-2.04-9.144c-.127-.608-.248-1.176-.36-1.704a64.489 64.489 0 0 0-.264-1.416c-.063-.416-.12-.752-.167-1.008a4.309 4.309 0 0 1-.073-.504 5.604 5.604 0 0 0-.096.48c-.032.256-.087.592-.167 1.008-.064.416-.152.888-.264 1.416-.096.512-.2 1.04-.313 1.584l-2.015 9.288h-2.544l-3.889-16.464h2.113l2.088 9.624c.111.512.215 1.048.312 1.608a49.43 49.43 0 0 1 .48 2.784c.047.336.08.536.096.6 0-.032.032-.208.096-.528.063-.336.136-.736.215-1.2a1594.61 1594.61 0 0 0 .625-3.024l2.184-9.864h2.231l2.28 10.224c.129.608.24 1.168.337 1.68.111.512.2.968.264 1.368.08.384.136.696.167.936.032.176.056.296.073.36.016-.064.04-.216.072-.456.063-.304.136-.688.215-1.152.08-.48.177-1.016.289-1.608.128-.592.256-1.192.383-1.8l2.04-9.552h1.969L61.71 29.232Z"/><g fill="#000" clip-path="url(#b)"><path d="M74.921 29.34h-7.64v-.9c.387-.267.82-.627 1.3-1.08a29.09 29.09 0 0 0 1.7-1.78 25.077 25.077 0 0 0 1.4-1.7c.4-.52.72-1 .96-1.44.254-.453.44-.88.56-1.28.12-.4.18-.787.18-1.16 0-.747-.226-1.36-.68-1.84-.453-.493-1.033-.74-1.74-.74-.293 0-.573.04-.84.12-.253.067-.5.16-.74.28-.24.107-.48.24-.72.4-.24.147-.493.3-.76.46l-.68-.76c.747-.64 1.467-1.113 2.16-1.42.694-.307 1.4-.46 2.12-.46.52 0 1.007.1 1.46.3.454.187.847.447 1.18.78.334.32.594.707.78 1.16.2.453.3.94.3 1.46 0 .573-.113 1.167-.34 1.78-.226.613-.54 1.2-.94 1.76a25.355 25.355 0 0 1-1.76 2.08l-.96 1c-.306.32-.593.607-.86.86a12.1 12.1 0 0 1-.66.62c-.186.16-.32.26-.4.3.107-.013.334-.027.68-.04.347-.027.687-.04 1.02-.04h4.24l-.32 1.28ZM80.546 18.16c-.04.027-.113.08-.22.16l-.38.24c-.133.093-.28.187-.44.28a3.581 3.581 0 0 1-.44.24 16.282 16.282 0 0 1-.96.44c-.16.067-.306.133-.44.2a4.217 4.217 0 0 0-.28.12l-.34-.86 3.84-2.7h1.24v13.06h-1.58V18.16Z"/></g><rect width="92.528" height="41" x="1.449" y=".5" stroke="#FB651E" rx="1.5"/><path fill="#000" d="m33.81 62-.52-6.539c-.008-.139-.017-.29-.025-.455a59.24 59.24 0 0 0-.026-.481c0-.156-.005-.286-.013-.39v-.182a1.443 1.443 0 0 0-.052.169 5.79 5.79 0 0 1-.078.351c-.035.139-.074.286-.117.442l-.104.429L30.964 62h-.91l-1.768-6.331a72.639 72.639 0 0 1-.3-1.118 7.602 7.602 0 0 1-.142-.559 26.802 26.802 0 0 0-.039.676c-.009.173-.022.351-.04.533a29.06 29.06 0 0 1-.025.455L27.246 62h-1.027l.78-8.918h1.56l1.625 5.824c.112.416.195.767.247 1.053l.104.494c.008-.035.039-.195.09-.481.061-.286.14-.607.235-.962l1.677-5.928h1.573L34.877 62H33.81Zm3.727-3.068v.156c0 .303.022.572.065.806a1.663 1.663 0 0 0 .923 1.222c.286.121.594.182.923.182a2.26 2.26 0 0 0 1.586-.611l.39.65c-.286.26-.62.46-1 .598a3.364 3.364 0 0 1-1.184.208c-.9 0-1.607-.303-2.119-.91-.502-.615-.754-1.46-.754-2.535 0-.546.061-1.005.182-1.378.122-.381.321-.737.598-1.066.512-.598 1.157-.897 1.937-.897.72 0 1.305.234 1.755.702.14.147.256.299.351.455.096.156.17.338.221.546.061.208.104.45.13.728.026.277.04.611.04 1.001v.143h-4.044Zm2.964-.767a4.478 4.478 0 0 0-.09-.871 1.71 1.71 0 0 0-.209-.572 1.195 1.195 0 0 0-.48-.416 1.519 1.519 0 0 0-.69-.156c-.944 0-1.443.672-1.495 2.015h2.964ZM50.323 62v-4.784c0-.633-.278-.949-.832-.949-.295 0-.572.091-.832.273a8.338 8.338 0 0 0-.884.728V62h-1.027v-4.602c0-.2-.013-.364-.04-.494a.85.85 0 0 0-.142-.338c-.148-.173-.369-.26-.663-.26-.252 0-.507.07-.767.208-.252.13-.546.347-.884.65V62h-.975v-5.018c0-.416-.035-.737-.104-.962-.061-.234-.104-.373-.13-.416l.988-.234c.026.052.069.178.13.377.069.19.104.386.104.585.104-.121.23-.238.377-.351a2.75 2.75 0 0 1 .468-.312c.173-.095.346-.169.52-.221.182-.06.355-.091.52-.091.32 0 .62.095.897.286.286.182.49.446.61.793.313-.33.655-.59 1.028-.78.372-.2.723-.299 1.053-.299.485 0 .875.165 1.17.494.303.32.455.741.455 1.261V62h-1.04Zm8.473-3.328c0 .52-.061.997-.182 1.43a3.362 3.362 0 0 1-.52 1.092 2.484 2.484 0 0 1-.82.715 2.22 2.22 0 0 1-1.052.247c-.338 0-.676-.082-1.014-.247a2.12 2.12 0 0 1-.767-.611c-.018.139-.035.26-.052.364-.018.095-.061.208-.13.338h-1.014c.069-.156.117-.351.143-.585.034-.243.052-.585.052-1.027v-6.37c0-.381-.026-.685-.078-.91a3.513 3.513 0 0 0-.091-.416l1.014-.195c.017.052.047.212.09.481.053.26.079.611.079 1.053v1.508c0 .147-.005.295-.013.442-.01.139-.013.23-.013.273.32-.312.624-.533.91-.663.286-.139.602-.208.949-.208.39 0 .736.078 1.04.234.312.147.576.364.793.65.216.286.38.633.494 1.04.12.407.182.862.182 1.365Zm-1.131-.065c0-.433-.03-.784-.091-1.053a1.706 1.706 0 0 0-.286-.689 1.173 1.173 0 0 0-.52-.403 1.601 1.601 0 0 0-.702-.156c-.321 0-.629.082-.923.247a1.984 1.984 0 0 0-.702.598v3.328c.173.225.407.412.702.559.294.147.593.221.897.221.225 0 .446-.052.663-.156.216-.104.385-.243.507-.416.12-.173.225-.425.312-.754.095-.338.143-.78.143-1.326Zm3.734.325v.156c0 .303.022.572.065.806a1.663 1.663 0 0 0 .923 1.222c.286.121.594.182.923.182a2.26 2.26 0 0 0 1.586-.611l.39.65c-.286.26-.62.46-1.001.598a3.364 3.364 0 0 1-1.183.208c-.901 0-1.608-.303-2.119-.91-.503-.615-.754-1.46-.754-2.535 0-.546.06-1.005.182-1.378.121-.381.32-.737.598-1.066.511-.598 1.157-.897 1.937-.897.72 0 1.304.234 1.755.702.139.147.256.299.351.455.095.156.169.338.221.546.06.208.104.45.13.728.026.277.039.611.039 1.001v.143h-4.043Zm2.964-.767a4.478 4.478 0 0 0-.091-.871 1.71 1.71 0 0 0-.208-.572 1.195 1.195 0 0 0-.481-.416 1.519 1.519 0 0 0-.689-.156c-.945 0-1.443.672-1.495 2.015h2.964Zm5.531-1.664a.763.763 0 0 0-.286-.052c-.407 0-.767.156-1.079.468-.147.147-.247.29-.299.429-.052.13-.078.33-.078.598V62h-1.014v-4.992c0-.425-.034-.75-.104-.975-.06-.225-.1-.36-.117-.403l1.014-.273c.026.052.07.182.13.39.07.2.096.42.078.663.234-.33.512-.59.832-.78.33-.2.659-.299.988-.299a.91.91 0 0 1 .221.026.84.84 0 0 1 .13.039l-.416 1.105Z" opacity=".5"/><defs><clipPath id="a"><path fill="#fff" d="M4.95 4h34v34h-34z"/></clipPath><clipPath id="b"><path fill="#fff" d="M67.221 15.5h21v15h-21z"/></clipPath></defs></svg>